<svg width="143" height="53" viewBox="0 0 143 53" fill="none" xmlns="http://www.w3.org/2000/svg">
<path d="M0 8C0 3.58172 3.58172 0 8 0H126C130.418 0 134 3.58172 134 8V26.5V45C134 49.4183 130.418 53 126 53H8C3.58172 53 0 49.4183 0 45V8Z" fill="#101010" fill-opacity="0.27"/>
<path d="M143 26.5L133.25 32.1292L133.25 20.8708L143 26.5Z" fill="#101010" fill-opacity="0.21"/>
<path d="M9.316 20.174C8.74 20.174 8.246 20.014 7.834 19.694C7.422 19.374 7.144 18.946 7 18.41L7.882 18.2C7.954 18.516 8.12 18.784 8.38 19.004C8.644 19.22 8.954 19.328 9.31 19.328C9.534 19.328 9.76 19.274 9.988 19.166C10.22 19.058 10.402 18.88 10.534 18.632C10.622 18.46 10.672 18.274 10.684 18.074C10.7 17.87 10.708 17.626 10.708 17.342V11.36H11.596V17.342C11.596 17.582 11.594 17.8 11.59 17.996C11.586 18.188 11.564 18.374 11.524 18.554C11.488 18.73 11.418 18.908 11.314 19.088C11.106 19.452 10.826 19.724 10.474 19.904C10.126 20.084 9.74 20.174 9.316 20.174ZM15.8844 20.162C15.4964 20.162 15.1564 20.102 14.8644 19.982C14.5764 19.862 14.3304 19.7 14.1264 19.496C13.9264 19.292 13.7644 19.06 13.6404 18.8C13.5164 18.536 13.4264 18.258 13.3704 17.966C13.3144 17.67 13.2864 17.376 13.2864 17.084V13.52H14.1744V16.826C14.1744 17.182 14.2084 17.512 14.2764 17.816C14.3444 18.12 14.4524 18.386 14.6004 18.614C14.7524 18.838 14.9464 19.012 15.1824 19.136C15.4224 19.26 15.7124 19.322 16.0524 19.322C16.3644 19.322 16.6384 19.268 16.8744 19.16C17.1144 19.052 17.3144 18.898 17.4744 18.698C17.6384 18.494 17.7624 18.248 17.8464 17.96C17.9304 17.668 17.9724 17.34 17.9724 16.976L18.5964 17.114C18.5964 17.778 18.4804 18.336 18.2484 18.788C18.0164 19.24 17.6964 19.582 17.2884 19.814C16.8804 20.046 16.4124 20.162 15.8844 20.162ZM18.0624 20V18.404H17.9724V13.52H18.8544V20H18.0624ZM25.2114 20V16.694C25.2114 16.334 25.1774 16.004 25.1094 15.704C25.0414 15.4 24.9314 15.136 24.7794 14.912C24.6314 14.684 24.4374 14.508 24.1974 14.384C23.9614 14.26 23.6734 14.198 23.3334 14.198C23.0214 14.198 22.7454 14.252 22.5054 14.36C22.2694 14.468 22.0694 14.624 21.9054 14.828C21.7454 15.028 21.6234 15.272 21.5394 15.56C21.4554 15.848 21.4134 16.176 21.4134 16.544L20.7894 16.406C20.7894 15.742 20.9054 15.184 21.1374 14.732C21.3694 14.28 21.6894 13.938 22.0974 13.706C22.5054 13.474 22.9734 13.358 23.5014 13.358C23.8894 13.358 24.2274 13.418 24.5154 13.538C24.8074 13.658 25.0534 13.82 25.2534 14.024C25.4574 14.228 25.6214 14.462 25.7454 14.726C25.8694 14.986 25.9594 15.264 26.0154 15.56C26.0714 15.852 26.0994 16.144 26.0994 16.436V20H25.2114ZM20.5254 20V13.52H21.3234V15.116H21.4134V20H20.5254ZM30.3633 20.18C29.7313 20.18 29.1833 20.04 28.7193 19.76C28.2593 19.48 27.9013 19.086 27.6453 18.578C27.3893 18.07 27.2613 17.474 27.2613 16.79C27.2613 16.082 27.3873 15.47 27.6393 14.954C27.8913 14.438 28.2453 14.04 28.7013 13.76C29.1613 13.48 29.7033 13.34 30.3273 13.34C30.9673 13.34 31.5133 13.488 31.9653 13.784C32.4173 14.076 32.7593 14.496 32.9913 15.044C33.2233 15.592 33.3293 16.246 33.3093 17.006H32.4093V16.694C32.3933 15.854 32.2113 15.22 31.8633 14.792C31.5193 14.364 31.0153 14.15 30.3513 14.15C29.6553 14.15 29.1213 14.376 28.7493 14.828C28.3813 15.28 28.1973 15.924 28.1973 16.76C28.1973 17.576 28.3813 18.21 28.7493 18.662C29.1213 19.11 29.6473 19.334 30.3273 19.334C30.7913 19.334 31.1953 19.228 31.5393 19.016C31.8873 18.8 32.1613 18.49 32.3613 18.086L33.1833 18.404C32.9273 18.968 32.5493 19.406 32.0493 19.718C31.5533 20.026 30.9913 20.18 30.3633 20.18ZM27.8853 17.006V16.268H32.8353V17.006H27.8853Z" fill="#202020"/>
<path d="M8.056 43V39.916H7.12V39.148H8.056V38.164H7.12V37.396H8.056V34.432H9.304L10.444 37.396H11.86V34.432H12.808V37.396H13.744V38.164H12.808V39.148H13.744V39.916H12.808V43H11.548L10.408 39.916H8.992V43H8.056ZM8.992 39.148H10.12L9.76 38.164H8.968L8.992 39.148ZM11.86 41.308H11.908L11.872 39.916H11.368L11.86 41.308ZM8.968 37.396H9.472L8.968 35.908H8.92L8.968 37.396ZM11.08 39.148H11.884L11.86 38.164H10.72L11.08 39.148ZM19.7435 43.18C19.2035 43.18 18.7255 43.072 18.3095 42.856C17.8975 42.64 17.5735 42.338 17.3375 41.95C17.1055 41.558 16.9895 41.1 16.9895 40.576C16.9895 40.04 17.1195 39.564 17.3795 39.148C17.6395 38.728 18.0355 38.41 18.5675 38.194L18.5555 38.542C18.1115 38.378 17.7735 38.11 17.5415 37.738C17.3095 37.366 17.1935 36.954 17.1935 36.502C17.1935 36.022 17.3035 35.61 17.5235 35.266C17.7435 34.918 18.0435 34.65 18.4235 34.462C18.8075 34.274 19.2475 34.18 19.7435 34.18C20.2395 34.18 20.6795 34.274 21.0635 34.462C21.4475 34.65 21.7495 34.918 21.9695 35.266C22.1895 35.61 22.2995 36.022 22.2995 36.502C22.2995 36.954 22.1875 37.364 21.9635 37.732C21.7435 38.1 21.4055 38.37 20.9495 38.542L20.9195 38.194C21.4515 38.406 21.8495 38.722 22.1135 39.142C22.3815 39.562 22.5155 40.04 22.5155 40.576C22.5155 41.1 22.3975 41.558 22.1615 41.95C21.9255 42.338 21.5995 42.64 21.1835 42.856C20.7675 43.072 20.2875 43.18 19.7435 43.18ZM19.7435 42.334C20.2875 42.334 20.7295 42.184 21.0695 41.884C21.4095 41.58 21.5795 41.144 21.5795 40.576C21.5795 40 21.4115 39.564 21.0755 39.268C20.7395 38.968 20.2955 38.818 19.7435 38.818C19.1915 38.818 18.7495 38.968 18.4175 39.268C18.0855 39.564 17.9195 40 17.9195 40.576C17.9195 41.144 18.0875 41.58 18.4235 41.884C18.7595 42.184 19.1995 42.334 19.7435 42.334ZM19.7435 37.966C20.2235 37.966 20.6135 37.844 20.9135 37.6C21.2135 37.352 21.3635 36.986 21.3635 36.502C21.3635 36.018 21.2135 35.656 20.9135 35.416C20.6135 35.172 20.2235 35.05 19.7435 35.05C19.2635 35.05 18.8735 35.172 18.5735 35.416C18.2775 35.656 18.1295 36.018 18.1295 36.502C18.1295 36.986 18.2775 37.352 18.5735 37.6C18.8735 37.844 19.2635 37.966 19.7435 37.966ZM26.6205 43.18C26.1725 43.18 25.7585 43.088 25.3785 42.904C24.9985 42.72 24.6745 42.466 24.4065 42.142C24.1385 41.818 23.9465 41.446 23.8305 41.026L24.6765 40.798C24.7525 41.11 24.8905 41.38 25.0905 41.608C25.2905 41.832 25.5245 42.006 25.7925 42.13C26.0645 42.254 26.3485 42.316 26.6445 42.316C27.0285 42.316 27.3725 42.224 27.6765 42.04C27.9845 41.852 28.2285 41.604 28.4085 41.296C28.5885 40.988 28.6785 40.65 28.6785 40.282C28.6785 39.902 28.5845 39.56 28.3965 39.256C28.2085 38.948 27.9605 38.704 27.6525 38.524C27.3445 38.344 27.0085 38.254 26.6445 38.254C26.2365 38.254 25.8845 38.344 25.5885 38.524C25.2925 38.7 25.0565 38.922 24.8805 39.19L24.0765 38.854L24.3405 34.36H28.9545V35.206H24.7305L25.1685 34.792L24.9345 38.626L24.7125 38.332C24.9605 38.048 25.2605 37.826 25.6125 37.666C25.9645 37.506 26.3345 37.426 26.7225 37.426C27.2545 37.426 27.7345 37.554 28.1625 37.81C28.5905 38.062 28.9305 38.404 29.1825 38.836C29.4345 39.268 29.5605 39.75 29.5605 40.282C29.5605 40.81 29.4265 41.294 29.1585 41.734C28.8905 42.17 28.5345 42.52 28.0905 42.784C27.6465 43.048 27.1565 43.18 26.6205 43.18ZM33.8163 43.18C33.2843 43.18 32.8043 43.056 32.3763 42.808C31.9523 42.56 31.6163 42.224 31.3683 41.8C31.1203 41.372 30.9963 40.892 30.9963 40.36V37C30.9963 36.468 31.1203 35.99 31.3683 35.566C31.6163 35.138 31.9523 34.8 32.3763 34.552C32.8043 34.304 33.2843 34.18 33.8163 34.18C34.3483 34.18 34.8263 34.304 35.2503 34.552C35.6783 34.8 36.0163 35.138 36.2643 35.566C36.5123 35.99 36.6363 36.468 36.6363 37V40.36C36.6363 40.892 36.5123 41.372 36.2643 41.8C36.0163 42.224 35.6783 42.56 35.2503 42.808C34.8263 43.056 34.3483 43.18 33.8163 43.18ZM33.8163 42.328C34.1723 42.328 34.4963 42.242 34.7883 42.07C35.0803 41.894 35.3123 41.66 35.4843 41.368C35.6563 41.076 35.7423 40.754 35.7423 40.402V36.958C35.7423 36.602 35.6563 36.278 35.4843 35.986C35.3123 35.694 35.0803 35.462 34.7883 35.29C34.4963 35.114 34.1723 35.026 33.8163 35.026C33.4603 35.026 33.1363 35.114 32.8443 35.29C32.5523 35.462 32.3203 35.694 32.1483 35.986C31.9763 36.278 31.8903 36.602 31.8903 36.958V40.402C31.8903 40.754 31.9763 41.076 32.1483 41.368C32.3203 41.66 32.5523 41.894 32.8443 42.07C33.1363 42.242 33.4603 42.328 33.8163 42.328ZM38.4885 43V41.974H39.5145V43H38.4885ZM41.1273 42.994L41.1333 42.19L45.0393 38.662C45.3753 38.358 45.5973 38.07 45.7053 37.798C45.8173 37.522 45.8733 37.234 45.8733 36.934C45.8733 36.578 45.7893 36.256 45.6213 35.968C45.4533 35.68 45.2273 35.452 44.9433 35.284C44.6593 35.112 44.3413 35.026 43.9893 35.026C43.6213 35.026 43.2933 35.114 43.0053 35.29C42.7173 35.466 42.4893 35.698 42.3213 35.986C42.1573 36.274 42.0773 36.588 42.0813 36.928H41.1813C41.1813 36.404 41.3053 35.934 41.5533 35.518C41.8013 35.102 42.1373 34.776 42.5613 34.54C42.9853 34.3 43.4653 34.18 44.0013 34.18C44.5253 34.18 44.9953 34.304 45.4113 34.552C45.8313 34.796 46.1613 35.128 46.4013 35.548C46.6453 35.964 46.7673 36.428 46.7673 36.94C46.7673 37.3 46.7233 37.618 46.6353 37.894C46.5513 38.166 46.4173 38.42 46.2333 38.656C46.0533 38.888 45.8233 39.128 45.5433 39.376L42.0753 42.508L41.9373 42.148H46.7673V42.994H41.1273ZM48.2111 43V34.36H49.0931V38.44L53.0351 34.36H54.1631L50.1371 38.53L54.4931 43H53.3411L49.0931 38.68V43H48.2111ZM57.5041 43V34.36H60.8401C61.3241 34.36 61.7461 34.46 62.1061 34.66C62.4661 34.86 62.7461 35.13 62.9461 35.47C63.1461 35.806 63.2461 36.178 63.2461 36.586C63.2461 37.05 63.1221 37.464 62.8741 37.828C62.6261 38.188 62.2941 38.438 61.8781 38.578L61.8661 38.284C62.4261 38.444 62.8661 38.724 63.1861 39.124C63.5061 39.524 63.6661 40.008 63.6661 40.576C63.6661 41.076 63.5601 41.508 63.3481 41.872C63.1361 42.232 62.8381 42.51 62.4541 42.706C62.0701 42.902 61.6241 43 61.1161 43H57.5041ZM58.3921 42.154H60.9001C61.2521 42.154 61.5681 42.092 61.8481 41.968C62.1281 41.84 62.3481 41.66 62.5081 41.428C62.6721 41.196 62.7541 40.916 62.7541 40.588C62.7541 40.268 62.6801 39.98 62.5321 39.724C62.3841 39.468 62.1821 39.264 61.9261 39.112C61.6741 38.956 61.3861 38.878 61.0621 38.878H58.3921V42.154ZM58.3921 38.044H60.8341C61.1101 38.044 61.3621 37.982 61.5901 37.858C61.8181 37.73 61.9981 37.556 62.1301 37.336C62.2661 37.116 62.3341 36.862 62.3341 36.574C62.3341 36.166 62.1921 35.834 61.9081 35.578C61.6281 35.322 61.2701 35.194 60.8341 35.194H58.3921V38.044ZM64.9834 35.29V34.3H65.8654V35.29H64.9834ZM64.9834 43V36.52H65.8654V43H64.9834ZM67.7842 43V34.18H68.6662V43H67.7842ZM70.585 43V34.18H71.467V43H70.585ZM78.4461 43.18C77.9661 43.18 77.5201 43.112 77.1081 42.976C76.7001 42.836 76.3581 42.618 76.0821 42.322C75.8661 42.09 75.7061 41.832 75.6021 41.548C75.4981 41.26 75.4401 40.956 75.4281 40.636C75.4241 40.332 75.4681 40.03 75.5601 39.73C75.6521 39.43 75.7961 39.164 75.9921 38.932C76.1081 38.788 76.2381 38.668 76.3821 38.572C76.5301 38.476 76.6821 38.394 76.8381 38.326C76.5381 38.014 76.3081 37.726 76.1481 37.462C75.9921 37.194 75.9141 36.866 75.9141 36.478C75.9141 36.034 76.0261 35.628 76.2501 35.26C76.4781 34.892 76.7921 34.618 77.1921 34.438C77.3961 34.346 77.6041 34.282 77.8161 34.246C78.0321 34.206 78.2461 34.186 78.4581 34.186C78.7821 34.186 79.1001 34.232 79.4121 34.324C79.7241 34.412 79.9901 34.552 80.2101 34.744C80.3581 34.86 80.4881 34.998 80.6001 35.158C80.7121 35.314 80.8001 35.478 80.8641 35.65L80.0121 35.902C79.9281 35.686 79.7881 35.504 79.5921 35.356C79.4401 35.236 79.2641 35.152 79.0641 35.104C78.8681 35.056 78.6701 35.032 78.4701 35.032C78.1301 35.032 77.8221 35.098 77.5461 35.23C77.3061 35.35 77.1261 35.516 77.0061 35.728C76.8861 35.94 76.8261 36.188 76.8261 36.472C76.8261 36.716 76.8661 36.918 76.9461 37.078C77.0261 37.234 77.1421 37.404 77.2941 37.588C77.3821 37.684 77.4801 37.782 77.5881 37.882C77.6961 37.978 77.8061 38.078 77.9181 38.182L80.6541 40.72C80.6701 40.608 80.6801 40.5 80.6841 40.396C80.6881 40.288 80.6901 40.182 80.6901 40.078L80.6841 38.812H81.5181V40.138C81.5181 40.454 81.5061 40.712 81.4821 40.912C81.4581 41.112 81.4261 41.278 81.3861 41.41L82.5021 42.436L81.9201 43.054L80.9661 42.154C80.8341 42.326 80.6661 42.48 80.4621 42.616C80.2621 42.752 80.0621 42.858 79.8621 42.934C79.6461 43.03 79.4181 43.094 79.1781 43.126C78.9381 43.162 78.6941 43.18 78.4461 43.18ZM78.4581 42.328C78.6861 42.328 78.8921 42.314 79.0761 42.286C79.2601 42.258 79.4361 42.2 79.6041 42.112C79.8161 42 79.9741 41.896 80.0781 41.8C80.1821 41.7 80.2661 41.612 80.3301 41.536L77.5221 38.968C77.3541 39.02 77.1961 39.092 77.0481 39.184C76.9041 39.272 76.7801 39.378 76.6761 39.502C76.5601 39.646 76.4741 39.812 76.4181 40C76.3621 40.188 76.3341 40.386 76.3341 40.594C76.3421 40.814 76.3781 41.018 76.4421 41.206C76.5101 41.39 76.6101 41.554 76.7421 41.698C76.9301 41.918 77.1821 42.078 77.4981 42.178C77.8141 42.278 78.1341 42.328 78.4581 42.328ZM86.0069 43V34.36H86.8889V43H86.0069ZM93.3677 43V39.694C93.3677 39.334 93.3337 39.004 93.2657 38.704C93.1977 38.4 93.0877 38.136 92.9357 37.912C92.7877 37.684 92.5937 37.508 92.3537 37.384C92.1177 37.26 91.8297 37.198 91.4897 37.198C91.1777 37.198 90.9017 37.252 90.6617 37.36C90.4257 37.468 90.2257 37.624 90.0617 37.828C89.9017 38.028 89.7797 38.272 89.6957 38.56C89.6117 38.848 89.5697 39.176 89.5697 39.544L88.9457 39.406C88.9457 38.742 89.0617 38.184 89.2937 37.732C89.5257 37.28 89.8457 36.938 90.2537 36.706C90.6617 36.474 91.1297 36.358 91.6577 36.358C92.0457 36.358 92.3837 36.418 92.6717 36.538C92.9637 36.658 93.2097 36.82 93.4097 37.024C93.6137 37.228 93.7777 37.462 93.9017 37.726C94.0257 37.986 94.1157 38.264 94.1717 38.56C94.2277 38.852 94.2557 39.144 94.2557 39.436V43H93.3677ZM88.6817 43V36.52H89.4797V38.116H89.5697V43H88.6817ZM97.5647 43L95.2127 36.52H96.1067L98.0207 41.848L99.9227 36.52H100.829L98.4767 43H97.5647ZM104.378 43.18C103.734 43.18 103.184 43.034 102.728 42.742C102.272 42.45 101.922 42.046 101.678 41.53C101.434 41.014 101.312 40.422 101.312 39.754C101.312 39.074 101.436 38.478 101.684 37.966C101.932 37.454 102.284 37.056 102.74 36.772C103.2 36.484 103.746 36.34 104.378 36.34C105.026 36.34 105.578 36.486 106.034 36.778C106.494 37.066 106.844 37.468 107.084 37.984C107.328 38.496 107.45 39.086 107.45 39.754C107.45 40.434 107.328 41.032 107.084 41.548C106.84 42.06 106.488 42.46 106.028 42.748C105.568 43.036 105.018 43.18 104.378 43.18ZM104.378 42.334C105.098 42.334 105.634 42.096 105.986 41.62C106.338 41.14 106.514 40.518 106.514 39.754C106.514 38.97 106.336 38.346 105.98 37.882C105.628 37.418 105.094 37.186 104.378 37.186C103.894 37.186 103.494 37.296 103.178 37.516C102.866 37.732 102.632 38.034 102.476 38.422C102.324 38.806 102.248 39.25 102.248 39.754C102.248 40.534 102.428 41.16 102.788 41.632C103.148 42.1 103.678 42.334 104.378 42.334ZM108.894 35.29V34.3H109.776V35.29H108.894ZM108.894 43V36.52H109.776V43H108.894ZM114.262 43.18C113.61 43.18 113.058 43.034 112.606 42.742C112.154 42.45 111.81 42.048 111.574 41.536C111.342 41.02 111.222 40.428 111.214 39.76C111.222 39.08 111.346 38.484 111.586 37.972C111.826 37.456 112.172 37.056 112.624 36.772C113.076 36.484 113.624 36.34 114.268 36.34C114.924 36.34 115.494 36.5 115.978 36.82C116.466 37.14 116.8 37.578 116.98 38.134L116.116 38.41C115.964 38.022 115.722 37.722 115.39 37.51C115.062 37.294 114.686 37.186 114.262 37.186C113.786 37.186 113.392 37.296 113.08 37.516C112.768 37.732 112.536 38.034 112.384 38.422C112.232 38.81 112.154 39.256 112.15 39.76C112.158 40.536 112.338 41.16 112.69 41.632C113.042 42.1 113.566 42.334 114.262 42.334C114.702 42.334 115.076 42.234 115.384 42.034C115.696 41.83 115.932 41.534 116.092 41.146L116.98 41.41C116.74 41.986 116.388 42.426 115.924 42.73C115.46 43.03 114.906 43.18 114.262 43.18ZM120.785 43.18C120.153 43.18 119.605 43.04 119.141 42.76C118.681 42.48 118.323 42.086 118.067 41.578C117.811 41.07 117.683 40.474 117.683 39.79C117.683 39.082 117.809 38.47 118.061 37.954C118.313 37.438 118.667 37.04 119.123 36.76C119.583 36.48 120.125 36.34 120.749 36.34C121.389 36.34 121.935 36.488 122.387 36.784C122.839 37.076 123.181 37.496 123.413 38.044C123.645 38.592 123.751 39.246 123.731 40.006H122.831V39.694C122.815 38.854 122.633 38.22 122.285 37.792C121.941 37.364 121.437 37.15 120.773 37.15C120.077 37.15 119.543 37.376 119.171 37.828C118.803 38.28 118.619 38.924 118.619 39.76C118.619 40.576 118.803 41.21 119.171 41.662C119.543 42.11 120.069 42.334 120.749 42.334C121.213 42.334 121.617 42.228 121.961 42.016C122.309 41.8 122.583 41.49 122.783 41.086L123.605 41.404C123.349 41.968 122.971 42.406 122.471 42.718C121.975 43.026 121.413 43.18 120.785 43.18ZM118.307 40.006V39.268H123.257V40.006H118.307Z" fill="#5E5E5E"/>
</svg>
