<svg width="352" height="232" viewBox="0 0 352 232" fill="none" xmlns="http://www.w3.org/2000/svg">
<path d="M6 107C6 104.791 7.79086 103 10 103H22C24.2091 103 26 104.791 26 107V240H6V107Z" fill="#5C9BFF"/>
<path d="M46 100C46 97.7909 47.7909 96 50 96H62C64.2091 96 66 97.7909 66 100V240H46V100Z" fill="#5C9BFF"/>
<path d="M86 124C86 121.791 87.7909 120 90 120H102C104.209 120 106 121.791 106 124V240H86V124Z" fill="#5C9BFF"/>
<path d="M126 81C126 78.7909 127.791 77 130 77H142C144.209 77 146 78.7909 146 81V240H126V81Z" fill="#5C9BFF"/>
<path d="M166 149C166 146.791 167.791 145 170 145H182C184.209 145 186 146.791 186 149V240H166V149Z" fill="#5C9BFF"/>
<path d="M206 64C206 61.7909 207.791 60 210 60H222C224.209 60 226 61.7909 226 64V240H206V64Z" fill="#5C9BFF"/>
<path d="M246 86C246 83.7909 247.791 82 250 82H262C264.209 82 266 83.7909 266 86V240H246V86Z" fill="#5C9BFF"/>
<path d="M286 105C286 102.791 287.791 101 290 101H302C304.209 101 306 102.791 306 105V240H286V105Z" fill="#5C9BFF"/>
<path d="M326 17C326 14.7909 327.791 13 330 13H342C344.209 13 346 14.7909 346 17V240H326V17Z" fill="#5C9BFF"/>
</svg>
