<svg width="338" height="20" viewBox="0 0 338 20" fill="none" xmlns="http://www.w3.org/2000/svg">
<path d="M4.634 15.21C3.91067 15.21 3.25733 15.0863 2.674 14.839C2.09533 14.587 1.617 14.23 1.239 13.768C0.865667 13.3013 0.623 12.7483 0.511 12.109L2.037 11.878C2.191 12.494 2.513 12.9747 3.003 13.32C3.493 13.6607 4.06467 13.831 4.718 13.831C5.124 13.831 5.49733 13.768 5.838 13.642C6.17867 13.5113 6.45167 13.327 6.657 13.089C6.867 12.8463 6.972 12.557 6.972 12.221C6.972 12.039 6.93933 11.878 6.874 11.738C6.81333 11.598 6.727 11.4767 6.615 11.374C6.50767 11.2667 6.37467 11.1757 6.216 11.101C6.062 11.0217 5.89167 10.954 5.705 10.898L3.122 10.135C2.87 10.0603 2.61333 9.96467 2.352 9.848C2.09067 9.72667 1.85033 9.57033 1.631 9.379C1.41633 9.183 1.24133 8.94267 1.106 8.658C0.970667 8.36867 0.903 8.01867 0.903 7.608C0.903 6.98733 1.06167 6.46233 1.379 6.033C1.701 5.599 2.135 5.27233 2.681 5.053C3.227 4.829 3.83833 4.717 4.515 4.717C5.19633 4.72633 5.80533 4.84767 6.342 5.081C6.88333 5.31433 7.33133 5.65033 7.686 6.089C8.04533 6.523 8.29267 7.05033 8.428 7.671L6.86 7.937C6.79 7.559 6.64067 7.23467 6.412 6.964C6.18333 6.68867 5.90333 6.47867 5.572 6.334C5.24067 6.18467 4.88133 6.10767 4.494 6.103C4.12067 6.09367 3.77767 6.14967 3.465 6.271C3.157 6.39233 2.90967 6.56267 2.723 6.782C2.541 7.00133 2.45 7.25333 2.45 7.538C2.45 7.818 2.53167 8.04433 2.695 8.217C2.85833 8.38967 3.059 8.52733 3.297 8.63C3.53967 8.728 3.78 8.80967 4.018 8.875L5.88 9.4C6.11333 9.46533 6.377 9.554 6.671 9.666C6.96967 9.77333 7.25667 9.925 7.532 10.121C7.812 10.317 8.043 10.5783 8.225 10.905C8.407 11.227 8.498 11.633 8.498 12.123C8.498 12.6317 8.39533 13.0797 8.19 13.467C7.98467 13.8497 7.70233 14.1717 7.343 14.433C6.98833 14.6897 6.57767 14.8833 6.111 15.014C5.64433 15.1447 5.152 15.21 4.634 15.21ZM12.1248 15.21C11.5648 15.21 11.0958 15.1073 10.7178 14.902C10.3398 14.692 10.0528 14.4167 9.85677 14.076C9.66543 13.7307 9.56977 13.3527 9.56977 12.942C9.56977 12.5593 9.63743 12.2233 9.77277 11.934C9.9081 11.6447 10.1088 11.3997 10.3748 11.199C10.6408 10.9937 10.9674 10.828 11.3548 10.702C11.6908 10.604 12.0711 10.5177 12.4958 10.443C12.9204 10.3683 13.3661 10.2983 13.8328 10.233C14.3041 10.1677 14.7708 10.1023 15.2328 10.037L14.7008 10.331C14.7101 9.73833 14.5841 9.29967 14.3228 9.015C14.0661 8.72567 13.6228 8.581 12.9928 8.581C12.5961 8.581 12.2321 8.67433 11.9008 8.861C11.5694 9.043 11.3384 9.34633 11.2078 9.771L9.84277 9.351C10.0294 8.70233 10.3841 8.18667 10.9068 7.804C11.4341 7.42133 12.1341 7.23 13.0068 7.23C13.6834 7.23 14.2714 7.34667 14.7708 7.58C15.2748 7.80867 15.6434 8.17267 15.8768 8.672C15.9981 8.91933 16.0728 9.18067 16.1008 9.456C16.1288 9.73133 16.1428 10.0277 16.1428 10.345V15H14.8478V13.271L15.0998 13.495C14.7871 14.0737 14.3881 14.5053 13.9028 14.79C13.4221 15.07 12.8294 15.21 12.1248 15.21ZM12.3838 14.013C12.7991 14.013 13.1561 13.9407 13.4548 13.796C13.7534 13.6467 13.9938 13.4577 14.1758 13.229C14.3578 13.0003 14.4768 12.7623 14.5328 12.515C14.6121 12.291 14.6564 12.039 14.6658 11.759C14.6798 11.479 14.6868 11.255 14.6868 11.087L15.1628 11.262C14.7008 11.332 14.2808 11.395 13.9028 11.451C13.5248 11.507 13.1818 11.563 12.8738 11.619C12.5704 11.6703 12.2998 11.7333 12.0618 11.808C11.8611 11.878 11.6814 11.962 11.5228 12.06C11.3688 12.158 11.2451 12.277 11.1518 12.417C11.0631 12.557 11.0188 12.7273 11.0188 12.928C11.0188 13.124 11.0678 13.306 11.1658 13.474C11.2638 13.6373 11.4131 13.768 11.6138 13.866C11.8144 13.964 12.0711 14.013 12.3838 14.013ZM18.1005 15V4.71H19.5635V15H18.1005ZM25.0185 15.21C24.2672 15.21 23.6069 15.0467 23.0375 14.72C22.4729 14.3887 22.0319 13.929 21.7145 13.341C21.4019 12.7483 21.2455 12.0623 21.2455 11.283C21.2455 10.457 21.3995 9.74067 21.7075 9.134C22.0202 8.52733 22.4542 8.05833 23.0095 7.727C23.5649 7.39567 24.2112 7.23 24.9485 7.23C25.7185 7.23 26.3742 7.40967 26.9155 7.769C27.4569 8.12367 27.8605 8.63 28.1265 9.288C28.3972 9.946 28.5045 10.7277 28.4485 11.633H26.9855V11.101C26.9762 10.2237 26.8082 9.575 26.4815 9.155C26.1595 8.735 25.6672 8.525 25.0045 8.525C24.2719 8.525 23.7212 8.756 23.3525 9.218C22.9839 9.68 22.7995 10.3473 22.7995 11.22C22.7995 12.0507 22.9839 12.6947 23.3525 13.152C23.7212 13.6047 24.2532 13.831 24.9485 13.831C25.4059 13.831 25.8002 13.7283 26.1315 13.523C26.4675 13.313 26.7289 13.0143 26.9155 12.627L28.3505 13.082C28.0565 13.7587 27.6109 14.2837 27.0135 14.657C26.4162 15.0257 25.7512 15.21 25.0185 15.21ZM22.3235 11.633V10.492H27.7205V11.633H22.3235ZM32.9101 15.203C31.9907 15.203 31.2417 15 30.6631 14.594C30.0844 14.188 29.7297 13.6163 29.5991 12.879L31.0971 12.648C31.1904 13.04 31.4051 13.3503 31.7411 13.579C32.0817 13.803 32.5041 13.915 33.0081 13.915C33.4654 13.915 33.8224 13.8217 34.0791 13.635C34.3404 13.4483 34.4711 13.1917 34.4711 12.865C34.4711 12.6737 34.4244 12.5197 34.3311 12.403C34.2424 12.2817 34.0534 12.1673 33.7641 12.06C33.4747 11.9527 33.0337 11.8197 32.4411 11.661C31.7924 11.493 31.2767 11.3133 30.8941 11.122C30.5161 10.926 30.2454 10.6997 30.0821 10.443C29.9234 10.1817 29.8441 9.86667 29.8441 9.498C29.8441 9.04067 29.9654 8.64167 30.2081 8.301C30.4507 7.96033 30.7914 7.69667 31.2301 7.51C31.6734 7.32333 32.1914 7.23 32.7841 7.23C33.3627 7.23 33.8784 7.321 34.3311 7.503C34.7837 7.685 35.1501 7.944 35.4301 8.28C35.7101 8.61133 35.8781 9.001 35.9341 9.449L34.4361 9.722C34.3847 9.358 34.2144 9.071 33.9251 8.861C33.6357 8.651 33.2601 8.53667 32.7981 8.518C32.3547 8.49933 31.9954 8.574 31.7201 8.742C31.4447 8.90533 31.3071 9.13167 31.3071 9.421C31.3071 9.589 31.3584 9.73133 31.4611 9.848C31.5684 9.96467 31.7737 10.0767 32.0771 10.184C32.3804 10.2913 32.8284 10.4197 33.4211 10.569C34.0557 10.7323 34.5597 10.9143 34.9331 11.115C35.3064 11.311 35.5724 11.5467 35.7311 11.822C35.8944 12.0927 35.9761 12.4217 35.9761 12.809C35.9761 13.5557 35.7031 14.1413 35.1571 14.566C34.6157 14.9907 33.8667 15.203 32.9101 15.203ZM44.6537 15C44.1777 15.0933 43.711 15.133 43.2537 15.119C42.7963 15.105 42.388 15.0163 42.0287 14.853C41.6693 14.6897 41.3987 14.433 41.2167 14.083C41.0533 13.7703 40.9647 13.453 40.9507 13.131C40.9413 12.8043 40.9367 12.4357 40.9367 12.025V5.34H42.4067V11.955C42.4067 12.2583 42.409 12.522 42.4137 12.746C42.423 12.97 42.472 13.159 42.5607 13.313C42.7287 13.6023 42.9947 13.768 43.3587 13.81C43.7273 13.8473 44.159 13.831 44.6537 13.761V15ZM39.4877 8.616V7.44H44.6537V8.616H39.4877ZM49.2588 15.21C48.5074 15.21 47.8471 15.0467 47.2778 14.72C46.7131 14.3887 46.2721 13.929 45.9548 13.341C45.6421 12.7483 45.4858 12.0623 45.4858 11.283C45.4858 10.457 45.6398 9.74067 45.9478 9.134C46.2604 8.52733 46.6944 8.05833 47.2498 7.727C47.8051 7.39567 48.4514 7.23 49.1888 7.23C49.9588 7.23 50.6144 7.40967 51.1558 7.769C51.6971 8.12367 52.1008 8.63 52.3668 9.288C52.6374 9.946 52.7448 10.7277 52.6888 11.633H51.2258V11.101C51.2164 10.2237 51.0484 9.575 50.7218 9.155C50.3998 8.735 49.9074 8.525 49.2448 8.525C48.5121 8.525 47.9614 8.756 47.5928 9.218C47.2241 9.68 47.0398 10.3473 47.0398 11.22C47.0398 12.0507 47.2241 12.6947 47.5928 13.152C47.9614 13.6047 48.4934 13.831 49.1888 13.831C49.6461 13.831 50.0404 13.7283 50.3718 13.523C50.7078 13.313 50.9691 13.0143 51.1558 12.627L52.5908 13.082C52.2968 13.7587 51.8511 14.2837 51.2538 14.657C50.6564 15.0257 49.9914 15.21 49.2588 15.21ZM46.5638 11.633V10.492H51.9608V11.633H46.5638ZM56.2576 15.21C55.6976 15.21 55.2286 15.1073 54.8506 14.902C54.4726 14.692 54.1856 14.4167 53.9896 14.076C53.7982 13.7307 53.7026 13.3527 53.7026 12.942C53.7026 12.5593 53.7702 12.2233 53.9056 11.934C54.0409 11.6447 54.2416 11.3997 54.5076 11.199C54.7736 10.9937 55.1002 10.828 55.4876 10.702C55.8236 10.604 56.2039 10.5177 56.6286 10.443C57.0532 10.3683 57.4989 10.2983 57.9656 10.233C58.4369 10.1677 58.9036 10.1023 59.3656 10.037L58.8336 10.331C58.8429 9.73833 58.7169 9.29967 58.4556 9.015C58.1989 8.72567 57.7556 8.581 57.1256 8.581C56.7289 8.581 56.3649 8.67433 56.0336 8.861C55.7022 9.043 55.4712 9.34633 55.3406 9.771L53.9756 9.351C54.1622 8.70233 54.5169 8.18667 55.0396 7.804C55.5669 7.42133 56.2669 7.23 57.1396 7.23C57.8162 7.23 58.4042 7.34667 58.9036 7.58C59.4076 7.80867 59.7762 8.17267 60.0096 8.672C60.1309 8.91933 60.2056 9.18067 60.2336 9.456C60.2616 9.73133 60.2756 10.0277 60.2756 10.345V15H58.9806V13.271L59.2326 13.495C58.9199 14.0737 58.5209 14.5053 58.0356 14.79C57.5549 15.07 56.9622 15.21 56.2576 15.21ZM56.5166 14.013C56.9319 14.013 57.2889 13.9407 57.5876 13.796C57.8862 13.6467 58.1266 13.4577 58.3086 13.229C58.4906 13.0003 58.6096 12.7623 58.6656 12.515C58.7449 12.291 58.7892 12.039 58.7986 11.759C58.8126 11.479 58.8196 11.255 58.8196 11.087L59.2956 11.262C58.8336 11.332 58.4136 11.395 58.0356 11.451C57.6576 11.507 57.3146 11.563 57.0066 11.619C56.7032 11.6703 56.4326 11.7333 56.1946 11.808C55.9939 11.878 55.8142 11.962 55.6556 12.06C55.5016 12.158 55.3779 12.277 55.2846 12.417C55.1959 12.557 55.1516 12.7273 55.1516 12.928C55.1516 13.124 55.2006 13.306 55.2986 13.474C55.3966 13.6373 55.5459 13.768 55.7466 13.866C55.9472 13.964 56.2039 14.013 56.5166 14.013ZM71.1513 15L71.1583 10.289C71.1583 9.743 71.0183 9.31833 70.7383 9.015C70.4583 8.707 70.0896 8.553 69.6323 8.553C69.3523 8.553 69.0956 8.61833 68.8623 8.749C68.6336 8.875 68.4469 9.06633 68.3023 9.323C68.1623 9.575 68.0923 9.89233 68.0923 10.275L67.3853 9.918C67.3759 9.386 67.4879 8.91933 67.7213 8.518C67.9593 8.11667 68.2813 7.80633 68.6873 7.587C69.0933 7.363 69.5483 7.251 70.0523 7.251C70.8689 7.251 71.5013 7.496 71.9493 7.986C72.3973 8.476 72.6213 9.127 72.6213 9.939L72.6143 15H71.1513ZM62.0863 15V7.44H63.3883V9.624H63.5563V15H62.0863ZM66.6223 15L66.6293 10.317C66.6293 9.76633 66.4893 9.33467 66.2093 9.022C65.9339 8.70933 65.5629 8.553 65.0963 8.553C64.6343 8.553 64.2609 8.71167 63.9763 9.029C63.6963 9.34633 63.5563 9.76167 63.5563 10.275L62.8563 9.827C62.8563 9.33233 62.9753 8.89133 63.2133 8.504C63.4513 8.11667 63.7733 7.811 64.1793 7.587C64.5853 7.363 65.0449 7.251 65.5583 7.251C66.0949 7.251 66.5523 7.36533 66.9303 7.594C67.3083 7.818 67.5953 8.133 67.7913 8.539C67.9919 8.945 68.0923 9.41633 68.0923 9.953L68.0853 15H66.6223ZM81.5677 15C81.0917 15.0933 80.6251 15.133 80.1677 15.119C79.7104 15.105 79.3021 15.0163 78.9427 14.853C78.5834 14.6897 78.3127 14.433 78.1307 14.083C77.9674 13.7703 77.8787 13.453 77.8647 13.131C77.8554 12.8043 77.8507 12.4357 77.8507 12.025V5.34H79.3207V11.955C79.3207 12.2583 79.3231 12.522 79.3277 12.746C79.3371 12.97 79.3861 13.159 79.4747 13.313C79.6427 13.6023 79.9087 13.768 80.2727 13.81C80.6414 13.8473 81.0731 13.831 81.5677 13.761V15ZM76.4017 8.616V7.44H81.5677V8.616H76.4017ZM83.1616 15V7.44H84.4636V9.274L84.2816 9.036C84.375 8.79333 84.4963 8.57167 84.6456 8.371C84.795 8.16567 84.9676 7.99767 85.1636 7.867C85.355 7.727 85.5673 7.61967 85.8006 7.545C86.0386 7.46567 86.2813 7.419 86.5286 7.405C86.776 7.38633 87.014 7.398 87.2426 7.44V8.812C86.9953 8.74667 86.72 8.728 86.4166 8.756C86.118 8.784 85.8426 8.87967 85.5906 9.043C85.3526 9.197 85.1636 9.38367 85.0236 9.603C84.8883 9.82233 84.7903 10.0673 84.7296 10.338C84.669 10.604 84.6386 10.8863 84.6386 11.185V15H83.1616ZM90.492 15.21C89.932 15.21 89.463 15.1073 89.085 14.902C88.707 14.692 88.42 14.4167 88.224 14.076C88.0326 13.7307 87.937 13.3527 87.937 12.942C87.937 12.5593 88.0046 12.2233 88.14 11.934C88.2753 11.6447 88.476 11.3997 88.742 11.199C89.008 10.9937 89.3346 10.828 89.722 10.702C90.058 10.604 90.4383 10.5177 90.863 10.443C91.2876 10.3683 91.7333 10.2983 92.2 10.233C92.6713 10.1677 93.138 10.1023 93.6 10.037L93.068 10.331C93.0773 9.73833 92.9513 9.29967 92.69 9.015C92.4333 8.72567 91.99 8.581 91.36 8.581C90.9633 8.581 90.5993 8.67433 90.268 8.861C89.9366 9.043 89.7056 9.34633 89.575 9.771L88.21 9.351C88.3966 8.70233 88.7513 8.18667 89.274 7.804C89.8013 7.42133 90.5013 7.23 91.374 7.23C92.0506 7.23 92.6386 7.34667 93.138 7.58C93.642 7.80867 94.0106 8.17267 94.244 8.672C94.3653 8.91933 94.44 9.18067 94.468 9.456C94.496 9.73133 94.51 10.0277 94.51 10.345V15H93.215V13.271L93.467 13.495C93.1543 14.0737 92.7553 14.5053 92.27 14.79C91.7893 15.07 91.1966 15.21 90.492 15.21ZM90.751 14.013C91.1663 14.013 91.5233 13.9407 91.822 13.796C92.1206 13.6467 92.361 13.4577 92.543 13.229C92.725 13.0003 92.844 12.7623 92.9 12.515C92.9793 12.291 93.0236 12.039 93.033 11.759C93.047 11.479 93.054 11.255 93.054 11.087L93.53 11.262C93.068 11.332 92.648 11.395 92.27 11.451C91.892 11.507 91.549 11.563 91.241 11.619C90.9376 11.6703 90.667 11.7333 90.429 11.808C90.2283 11.878 90.0486 11.962 89.89 12.06C89.736 12.158 89.6123 12.277 89.519 12.417C89.4303 12.557 89.386 12.7273 89.386 12.928C89.386 13.124 89.435 13.306 89.533 13.474C89.631 13.6373 89.7803 13.768 89.981 13.866C90.1816 13.964 90.4383 14.013 90.751 14.013ZM98.0982 15L95.3542 7.44H96.8312L98.8402 13.166L100.849 7.44H102.326L99.5822 15H98.0982ZM106.667 15.21C105.916 15.21 105.255 15.0467 104.686 14.72C104.121 14.3887 103.68 13.929 103.363 13.341C103.05 12.7483 102.894 12.0623 102.894 11.283C102.894 10.457 103.048 9.74067 103.356 9.134C103.669 8.52733 104.103 8.05833 104.658 7.727C105.213 7.39567 105.86 7.23 106.597 7.23C107.367 7.23 108.023 7.40967 108.564 7.769C109.105 8.12367 109.509 8.63 109.775 9.288C110.046 9.946 110.153 10.7277 110.097 11.633H108.634V11.101C108.625 10.2237 108.457 9.575 108.13 9.155C107.808 8.735 107.316 8.525 106.653 8.525C105.92 8.525 105.37 8.756 105.001 9.218C104.632 9.68 104.448 10.3473 104.448 11.22C104.448 12.0507 104.632 12.6947 105.001 13.152C105.37 13.6047 105.902 13.831 106.597 13.831C107.054 13.831 107.449 13.7283 107.78 13.523C108.116 13.313 108.377 13.0143 108.564 12.627L109.999 13.082C109.705 13.7587 109.259 14.2837 108.662 14.657C108.065 15.0257 107.4 15.21 106.667 15.21ZM103.972 11.633V10.492H109.369V11.633H103.972ZM111.808 15V4.71H113.271V15H111.808ZM121.724 15.21C121.001 15.21 120.394 15.035 119.904 14.685C119.414 14.3303 119.043 13.852 118.791 13.25C118.539 12.648 118.413 11.969 118.413 11.213C118.413 10.457 118.537 9.778 118.784 9.176C119.036 8.574 119.405 8.10033 119.89 7.755C120.38 7.405 120.982 7.23 121.696 7.23C122.406 7.23 123.017 7.405 123.53 7.755C124.048 8.10033 124.447 8.574 124.727 9.176C125.007 9.77333 125.147 10.4523 125.147 11.213C125.147 11.969 125.007 12.6503 124.727 13.257C124.452 13.859 124.058 14.335 123.544 14.685C123.036 15.035 122.429 15.21 121.724 15.21ZM118.168 15V4.92H119.638V9.561H119.47V15H118.168ZM121.521 13.887C121.988 13.887 122.373 13.768 122.676 13.53C122.984 13.292 123.213 12.9723 123.362 12.571C123.516 12.165 123.593 11.7123 123.593 11.213C123.593 10.7183 123.516 10.2703 123.362 9.869C123.213 9.46767 122.982 9.148 122.669 8.91C122.357 8.672 121.958 8.553 121.472 8.553C121.015 8.553 120.637 8.665 120.338 8.889C120.044 9.113 119.825 9.42567 119.68 9.827C119.54 10.2283 119.47 10.6903 119.47 11.213C119.47 11.7357 119.54 12.1977 119.68 12.599C119.82 13.0003 120.042 13.3153 120.345 13.544C120.649 13.7727 121.041 13.887 121.521 13.887ZM129.542 15.203C129.019 15.203 128.581 15.119 128.226 14.951C127.871 14.783 127.582 14.5637 127.358 14.293C127.139 14.0177 126.971 13.719 126.854 13.397C126.737 13.075 126.658 12.76 126.616 12.452C126.574 12.144 126.553 11.8733 126.553 11.64V7.44H128.037V11.157C128.037 11.451 128.06 11.7543 128.107 12.067C128.158 12.375 128.252 12.662 128.387 12.928C128.527 13.194 128.721 13.4087 128.968 13.572C129.22 13.7353 129.547 13.817 129.948 13.817C130.209 13.817 130.457 13.775 130.69 13.691C130.923 13.6023 131.126 13.4623 131.299 13.271C131.476 13.0797 131.614 12.8277 131.712 12.515C131.815 12.2023 131.866 11.822 131.866 11.374L132.776 11.717C132.776 12.403 132.648 13.0097 132.391 13.537C132.134 14.0597 131.766 14.468 131.285 14.762C130.804 15.056 130.223 15.203 129.542 15.203ZM132.041 15V12.816H131.866V7.44H133.343V15H132.041ZM138.309 15.21C137.605 15.21 136.996 15.035 136.482 14.685C135.974 14.335 135.579 13.859 135.299 13.257C135.024 12.6503 134.886 11.969 134.886 11.213C134.886 10.4523 135.026 9.77333 135.306 9.176C135.586 8.574 135.983 8.10033 136.496 7.755C137.014 7.405 137.628 7.23 138.337 7.23C139.051 7.23 139.651 7.405 140.136 7.755C140.626 8.10033 140.995 8.574 141.242 9.176C141.494 9.778 141.62 10.457 141.62 11.213C141.62 11.969 141.494 12.648 141.242 13.25C140.99 13.852 140.619 14.3303 140.129 14.685C139.639 15.035 139.033 15.21 138.309 15.21ZM138.512 13.887C138.993 13.887 139.385 13.7727 139.688 13.544C139.992 13.3153 140.213 13.0003 140.353 12.599C140.493 12.1977 140.563 11.7357 140.563 11.213C140.563 10.6903 140.491 10.2283 140.346 9.827C140.206 9.42567 139.987 9.113 139.688 8.889C139.394 8.665 139.019 8.553 138.561 8.553C138.076 8.553 137.677 8.672 137.364 8.91C137.052 9.148 136.818 9.46767 136.664 9.869C136.515 10.2703 136.44 10.7183 136.44 11.213C136.44 11.7123 136.515 12.165 136.664 12.571C136.818 12.9723 137.047 13.292 137.35 13.53C137.658 13.768 138.046 13.887 138.512 13.887ZM140.563 15V9.561H140.395V4.92H141.865V15H140.563ZM146.939 18.57C146.533 18.57 146.138 18.507 145.756 18.381C145.378 18.255 145.032 18.0683 144.72 17.821C144.407 17.5783 144.148 17.2773 143.943 16.918L145.294 16.232C145.457 16.554 145.69 16.7897 145.994 16.939C146.297 17.0883 146.617 17.163 146.953 17.163C147.368 17.163 147.723 17.0883 148.017 16.939C148.311 16.7943 148.532 16.575 148.682 16.281C148.836 15.987 148.91 15.623 148.906 15.189V13.075H149.081V7.44H150.376V15.203C150.376 15.4037 150.369 15.595 150.355 15.777C150.341 15.959 150.315 16.141 150.278 16.323C150.17 16.8317 149.965 17.2517 149.662 17.583C149.363 17.9143 148.98 18.1617 148.514 18.325C148.052 18.4883 147.527 18.57 146.939 18.57ZM146.827 15.21C146.122 15.21 145.513 15.035 145 14.685C144.491 14.335 144.097 13.859 143.817 13.257C143.541 12.6503 143.404 11.969 143.404 11.213C143.404 10.4523 143.544 9.77333 143.824 9.176C144.104 8.574 144.5 8.10033 145.014 7.755C145.532 7.405 146.145 7.23 146.855 7.23C147.569 7.23 148.168 7.405 148.654 7.755C149.144 8.10033 149.512 8.574 149.76 9.176C150.012 9.778 150.138 10.457 150.138 11.213C150.138 11.969 150.012 12.648 149.76 13.25C149.508 13.852 149.137 14.3303 148.647 14.685C148.157 15.035 147.55 15.21 146.827 15.21ZM147.03 13.887C147.51 13.887 147.902 13.7727 148.206 13.544C148.509 13.3153 148.731 13.0003 148.871 12.599C149.011 12.1977 149.081 11.7357 149.081 11.213C149.081 10.6903 149.008 10.2283 148.864 9.827C148.724 9.42567 148.504 9.113 148.206 8.889C147.912 8.665 147.536 8.553 147.079 8.553C146.593 8.553 146.194 8.672 145.882 8.91C145.569 9.148 145.336 9.46767 145.182 9.869C145.032 10.2703 144.958 10.7183 144.958 11.213C144.958 11.7123 145.032 12.165 145.182 12.571C145.336 12.9723 145.564 13.292 145.868 13.53C146.176 13.768 146.563 13.887 147.03 13.887ZM155.694 15.21C154.943 15.21 154.283 15.0467 153.713 14.72C153.149 14.3887 152.708 13.929 152.39 13.341C152.078 12.7483 151.921 12.0623 151.921 11.283C151.921 10.457 152.075 9.74067 152.383 9.134C152.696 8.52733 153.13 8.05833 153.685 7.727C154.241 7.39567 154.887 7.23 155.624 7.23C156.394 7.23 157.05 7.40967 157.591 7.769C158.133 8.12367 158.536 8.63 158.802 9.288C159.073 9.946 159.18 10.7277 159.124 11.633H157.661V11.101C157.652 10.2237 157.484 9.575 157.157 9.155C156.835 8.735 156.343 8.525 155.68 8.525C154.948 8.525 154.397 8.756 154.028 9.218C153.66 9.68 153.475 10.3473 153.475 11.22C153.475 12.0507 153.66 12.6947 154.028 13.152C154.397 13.6047 154.929 13.831 155.624 13.831C156.082 13.831 156.476 13.7283 156.807 13.523C157.143 13.313 157.405 13.0143 157.591 12.627L159.026 13.082C158.732 13.7587 158.287 14.2837 157.689 14.657C157.092 15.0257 156.427 15.21 155.694 15.21ZM152.999 11.633V10.492H158.396V11.633H152.999ZM165.021 15C164.545 15.0933 164.078 15.133 163.621 15.119C163.164 15.105 162.755 15.0163 162.396 14.853C162.037 14.6897 161.766 14.433 161.584 14.083C161.421 13.7703 161.332 13.453 161.318 13.131C161.309 12.8043 161.304 12.4357 161.304 12.025V5.34H162.774V11.955C162.774 12.2583 162.776 12.522 162.781 12.746C162.79 12.97 162.839 13.159 162.928 13.313C163.096 13.6023 163.362 13.768 163.726 13.81C164.095 13.8473 164.526 13.831 165.021 13.761V15ZM159.855 8.616V7.44H165.021V8.616H159.855Z" fill="#5E5E5E"/>
<rect x="174" width="31" height="18" rx="9" fill="#EFEFF9"/>
<path d="M181.817 8.84171C181.805 8.84171 181.796 8.84171 181.784 8.84171C181.763 8.83754 181.734 8.83754 181.709 8.84171C180.5 8.80421 179.588 7.85421 179.588 6.68337C179.588 5.49171 180.559 4.52087 181.75 4.52087C182.942 4.52087 183.913 5.49171 183.913 6.68337C183.909 7.85421 182.992 8.80421 181.83 8.84171C181.825 8.84171 181.821 8.84171 181.817 8.84171ZM181.75 5.14587C180.905 5.14587 180.213 5.83754 180.213 6.68337C180.213 7.51671 180.863 8.18754 181.692 8.21671C181.717 8.21254 181.771 8.21254 181.825 8.21671C182.642 8.17921 183.284 7.50837 183.288 6.68337C183.288 5.83754 182.596 5.14587 181.75 5.14587Z" fill="#454ADE"/>
<path d="M184.892 8.89579C184.879 8.89579 184.867 8.89579 184.854 8.89163C184.684 8.90829 184.509 8.78746 184.492 8.61663C184.475 8.44579 184.579 8.29163 184.75 8.27079C184.8 8.26663 184.854 8.26663 184.9 8.26663C185.509 8.23329 185.984 7.73329 185.984 7.12079C185.984 6.48746 185.471 5.97496 184.838 5.97496C184.667 5.97913 184.525 5.83746 184.525 5.66663C184.525 5.49579 184.667 5.35413 184.838 5.35413C185.813 5.35413 186.609 6.14996 186.609 7.12496C186.609 8.08329 185.859 8.85829 184.904 8.89579C184.9 8.89579 184.896 8.89579 184.892 8.89579Z" fill="#454ADE"/>
<path d="M181.82 13.3958C181.004 13.3958 180.183 13.1875 179.562 12.7708C178.983 12.3875 178.666 11.8625 178.666 11.2916C178.666 10.7208 178.983 10.1916 179.562 9.80413C180.812 8.97496 182.837 8.97496 184.079 9.80413C184.654 10.1875 184.974 10.7125 184.974 11.2833C184.974 11.8541 184.658 12.3833 184.079 12.7708C183.454 13.1875 182.637 13.3958 181.82 13.3958ZM179.908 10.3291C179.508 10.5958 179.291 10.9375 179.291 11.2958C179.291 11.65 179.512 11.9916 179.908 12.2541C180.945 12.95 182.695 12.95 183.733 12.2541C184.133 11.9875 184.349 11.6458 184.349 11.2875C184.349 10.9333 184.129 10.5916 183.733 10.3291C182.695 9.63746 180.945 9.63746 179.908 10.3291Z" fill="#454ADE"/>
<path d="M185.642 12.6458C185.496 12.6458 185.367 12.5458 185.338 12.3958C185.305 12.225 185.413 12.0625 185.58 12.025C185.842 11.9708 186.084 11.8667 186.271 11.7208C186.509 11.5417 186.638 11.3167 186.638 11.0792C186.638 10.8417 186.509 10.6167 186.276 10.4417C186.092 10.3 185.863 10.2 185.592 10.1375C185.426 10.1 185.317 9.93334 185.355 9.76251C185.392 9.59584 185.559 9.48751 185.73 9.52501C186.088 9.60417 186.401 9.74584 186.655 9.94167C187.042 10.2333 187.263 10.6458 187.263 11.0792C187.263 11.5125 187.038 11.925 186.651 12.2208C186.392 12.4208 186.067 12.5667 185.709 12.6375C185.684 12.6458 185.663 12.6458 185.642 12.6458Z" fill="#454ADE"/>
<rect x="191" y="4" width="10" height="10" rx="5" fill="#454ADE"/>
<path d="M195.923 11.087C195.709 11.087 195.512 11.049 195.332 10.973C195.152 10.897 194.997 10.789 194.867 10.649C194.737 10.507 194.642 10.338 194.582 10.142L195.002 10.016C195.074 10.23 195.192 10.392 195.356 10.502C195.522 10.612 195.709 10.665 195.917 10.661C196.109 10.657 196.274 10.614 196.412 10.532C196.552 10.45 196.659 10.336 196.733 10.19C196.807 10.044 196.844 9.875 196.844 9.683C196.844 9.389 196.758 9.153 196.586 8.975C196.416 8.795 196.191 8.705 195.911 8.705C195.833 8.705 195.751 8.716 195.665 8.738C195.579 8.758 195.499 8.787 195.425 8.825L195.203 8.474L196.883 6.923L196.955 7.103H194.753V6.68H197.249V7.109L195.785 8.507L195.779 8.333C196.079 8.295 196.343 8.329 196.571 8.435C196.799 8.541 196.977 8.703 197.105 8.921C197.235 9.137 197.3 9.391 197.3 9.683C197.3 9.959 197.24 10.203 197.12 10.415C197.002 10.625 196.839 10.79 196.631 10.91C196.423 11.028 196.187 11.087 195.923 11.087Z" fill="#F9F6FF"/>
<path d="M246.98 15V4.92H248.688L253.364 12.025V4.92H255.072V15H253.364L248.688 7.895V15H246.98ZM261.582 15V6.761L259.692 7.916V6.054L261.582 4.92H263.304V15H261.582ZM265.69 14.986V13.516L270.002 9.673C270.338 9.37433 270.572 9.092 270.702 8.826C270.833 8.56 270.898 8.30333 270.898 8.056C270.898 7.72 270.826 7.42133 270.681 7.16C270.537 6.894 270.336 6.684 270.079 6.53C269.827 6.376 269.536 6.299 269.204 6.299C268.854 6.299 268.544 6.38067 268.273 6.544C268.007 6.70267 267.8 6.915 267.65 7.181C267.501 7.447 267.431 7.734 267.44 8.042H265.704C265.704 7.37 265.854 6.78433 266.152 6.285C266.456 5.78567 266.871 5.39833 267.398 5.123C267.93 4.84767 268.544 4.71 269.239 4.71C269.883 4.71 270.462 4.85467 270.975 5.144C271.489 5.42867 271.892 5.82533 272.186 6.334C272.48 6.838 272.627 7.419 272.627 8.077C272.627 8.55767 272.562 8.96133 272.431 9.288C272.301 9.61467 272.105 9.91567 271.843 10.191C271.587 10.4663 271.267 10.772 270.884 11.108L267.825 13.817L267.671 13.397H272.627V14.986H265.69ZM277.936 15.21C277.222 15.21 276.592 15.0583 276.046 14.755C275.5 14.447 275.073 14.02 274.765 13.474C274.462 12.928 274.31 12.298 274.31 11.584V8.336C274.31 7.622 274.462 6.992 274.765 6.446C275.073 5.9 275.5 5.47533 276.046 5.172C276.592 4.864 277.222 4.71 277.936 4.71C278.65 4.71 279.278 4.864 279.819 5.172C280.365 5.47533 280.792 5.9 281.1 6.446C281.408 6.992 281.562 7.622 281.562 8.336V11.584C281.562 12.298 281.408 12.928 281.1 13.474C280.792 14.02 280.365 14.447 279.819 14.755C279.278 15.0583 278.65 15.21 277.936 15.21ZM277.936 13.607C278.291 13.607 278.613 13.523 278.902 13.355C279.191 13.1823 279.42 12.9537 279.588 12.669C279.756 12.3797 279.84 12.0577 279.84 11.703V8.21C279.84 7.85067 279.756 7.52867 279.588 7.244C279.42 6.95467 279.191 6.726 278.902 6.558C278.613 6.38533 278.291 6.299 277.936 6.299C277.581 6.299 277.259 6.38533 276.97 6.558C276.681 6.726 276.452 6.95467 276.284 7.244C276.116 7.52867 276.032 7.85067 276.032 8.21V11.703C276.032 12.0577 276.116 12.3797 276.284 12.669C276.452 12.9537 276.681 13.1823 276.97 13.355C277.259 13.523 277.581 13.607 277.936 13.607ZM283.385 16.785L283.483 16.057C283.698 16.0757 283.868 16.0383 283.994 15.945C284.12 15.8563 284.204 15.728 284.246 15.56C284.293 15.3967 284.304 15.21 284.281 15H283.385V13.201H285.114V15.07C285.114 15.6813 284.969 16.1433 284.68 16.456C284.391 16.7687 283.959 16.8783 283.385 16.785ZM291.403 15.21C290.689 15.21 290.059 15.0583 289.513 14.755C288.967 14.447 288.54 14.02 288.232 13.474C287.929 12.928 287.777 12.298 287.777 11.584V8.336C287.777 7.622 287.929 6.992 288.232 6.446C288.54 5.9 288.967 5.47533 289.513 5.172C290.059 4.864 290.689 4.71 291.403 4.71C292.117 4.71 292.745 4.864 293.286 5.172C293.832 5.47533 294.259 5.9 294.567 6.446C294.875 6.992 295.029 7.622 295.029 8.336V11.584C295.029 12.298 294.875 12.928 294.567 13.474C294.259 14.02 293.832 14.447 293.286 14.755C292.745 15.0583 292.117 15.21 291.403 15.21ZM291.403 13.607C291.758 13.607 292.08 13.523 292.369 13.355C292.658 13.1823 292.887 12.9537 293.055 12.669C293.223 12.3797 293.307 12.0577 293.307 11.703V8.21C293.307 7.85067 293.223 7.52867 293.055 7.244C292.887 6.95467 292.658 6.726 292.369 6.558C292.08 6.38533 291.758 6.299 291.403 6.299C291.048 6.299 290.726 6.38533 290.437 6.558C290.148 6.726 289.919 6.95467 289.751 7.244C289.583 7.52867 289.499 7.85067 289.499 8.21V11.703C289.499 12.0577 289.583 12.3797 289.751 12.669C289.919 12.9537 290.148 13.1823 290.437 13.355C290.726 13.523 291.048 13.607 291.403 13.607ZM300.618 15.21C299.904 15.21 299.274 15.0583 298.728 14.755C298.182 14.447 297.755 14.02 297.447 13.474C297.143 12.928 296.992 12.298 296.992 11.584V8.336C296.992 7.622 297.143 6.992 297.447 6.446C297.755 5.9 298.182 5.47533 298.728 5.172C299.274 4.864 299.904 4.71 300.618 4.71C301.332 4.71 301.959 4.864 302.501 5.172C303.047 5.47533 303.474 5.9 303.782 6.446C304.09 6.992 304.244 7.622 304.244 8.336V11.584C304.244 12.298 304.09 12.928 303.782 13.474C303.474 14.02 303.047 14.447 302.501 14.755C301.959 15.0583 301.332 15.21 300.618 15.21ZM300.618 13.607C300.972 13.607 301.294 13.523 301.584 13.355C301.873 13.1823 302.102 12.9537 302.27 12.669C302.438 12.3797 302.522 12.0577 302.522 11.703V8.21C302.522 7.85067 302.438 7.52867 302.27 7.244C302.102 6.95467 301.873 6.726 301.584 6.558C301.294 6.38533 300.972 6.299 300.618 6.299C300.263 6.299 299.941 6.38533 299.652 6.558C299.362 6.726 299.134 6.95467 298.966 7.244C298.798 7.52867 298.714 7.85067 298.714 8.21V11.703C298.714 12.0577 298.798 12.3797 298.966 12.669C299.134 12.9537 299.362 13.1823 299.652 13.355C299.941 13.523 300.263 13.607 300.618 13.607ZM309.833 15.21C309.119 15.21 308.489 15.0583 307.943 14.755C307.397 14.447 306.97 14.02 306.662 13.474C306.358 12.928 306.207 12.298 306.207 11.584V8.336C306.207 7.622 306.358 6.992 306.662 6.446C306.97 5.9 307.397 5.47533 307.943 5.172C308.489 4.864 309.119 4.71 309.833 4.71C310.547 4.71 311.174 4.864 311.716 5.172C312.262 5.47533 312.689 5.9 312.997 6.446C313.305 6.992 313.459 7.622 313.459 8.336V11.584C313.459 12.298 313.305 12.928 312.997 13.474C312.689 14.02 312.262 14.447 311.716 14.755C311.174 15.0583 310.547 15.21 309.833 15.21ZM309.833 13.607C310.187 13.607 310.509 13.523 310.799 13.355C311.088 13.1823 311.317 12.9537 311.485 12.669C311.653 12.3797 311.737 12.0577 311.737 11.703V8.21C311.737 7.85067 311.653 7.52867 311.485 7.244C311.317 6.95467 311.088 6.726 310.799 6.558C310.509 6.38533 310.187 6.299 309.833 6.299C309.478 6.299 309.156 6.38533 308.867 6.558C308.577 6.726 308.349 6.95467 308.181 7.244C308.013 7.52867 307.929 7.85067 307.929 8.21V11.703C307.929 12.0577 308.013 12.3797 308.181 12.669C308.349 12.9537 308.577 13.1823 308.867 13.355C309.156 13.523 309.478 13.607 309.833 13.607ZM315.701 15V13.271H317.43V15H315.701ZM323.299 15.21C322.585 15.21 321.955 15.0583 321.409 14.755C320.863 14.447 320.436 14.02 320.128 13.474C319.825 12.928 319.673 12.298 319.673 11.584V8.336C319.673 7.622 319.825 6.992 320.128 6.446C320.436 5.9 320.863 5.47533 321.409 5.172C321.955 4.864 322.585 4.71 323.299 4.71C324.013 4.71 324.641 4.864 325.182 5.172C325.728 5.47533 326.155 5.9 326.463 6.446C326.771 6.992 326.925 7.622 326.925 8.336V11.584C326.925 12.298 326.771 12.928 326.463 13.474C326.155 14.02 325.728 14.447 325.182 14.755C324.641 15.0583 324.013 15.21 323.299 15.21ZM323.299 13.607C323.654 13.607 323.976 13.523 324.265 13.355C324.555 13.1823 324.783 12.9537 324.951 12.669C325.119 12.3797 325.203 12.0577 325.203 11.703V8.21C325.203 7.85067 325.119 7.52867 324.951 7.244C324.783 6.95467 324.555 6.726 324.265 6.558C323.976 6.38533 323.654 6.299 323.299 6.299C322.945 6.299 322.623 6.38533 322.333 6.558C322.044 6.726 321.815 6.95467 321.647 7.244C321.479 7.52867 321.395 7.85067 321.395 8.21V11.703C321.395 12.0577 321.479 12.3797 321.647 12.669C321.815 12.9537 322.044 13.1823 322.333 13.355C322.623 13.523 322.945 13.607 323.299 13.607ZM332.514 15.21C331.8 15.21 331.17 15.0583 330.624 14.755C330.078 14.447 329.651 14.02 329.343 13.474C329.04 12.928 328.888 12.298 328.888 11.584V8.336C328.888 7.622 329.04 6.992 329.343 6.446C329.651 5.9 330.078 5.47533 330.624 5.172C331.17 4.864 331.8 4.71 332.514 4.71C333.228 4.71 333.856 4.864 334.397 5.172C334.943 5.47533 335.37 5.9 335.678 6.446C335.986 6.992 336.14 7.622 336.14 8.336V11.584C336.14 12.298 335.986 12.928 335.678 13.474C335.37 14.02 334.943 14.447 334.397 14.755C333.856 15.0583 333.228 15.21 332.514 15.21ZM332.514 13.607C332.869 13.607 333.191 13.523 333.48 13.355C333.77 13.1823 333.998 12.9537 334.166 12.669C334.334 12.3797 334.418 12.0577 334.418 11.703V8.21C334.418 7.85067 334.334 7.52867 334.166 7.244C333.998 6.95467 333.77 6.726 333.48 6.558C333.191 6.38533 332.869 6.299 332.514 6.299C332.16 6.299 331.838 6.38533 331.548 6.558C331.259 6.726 331.03 6.95467 330.862 7.244C330.694 7.52867 330.61 7.85067 330.61 8.21V11.703C330.61 12.0577 330.694 12.3797 330.862 12.669C331.03 12.9537 331.259 13.1823 331.548 13.355C331.838 13.523 332.16 13.607 332.514 13.607Z" fill="#202020"/>
</svg>
