<svg width="64" height="64" viewBox="0 0 64 64" fill="none" xmlns="http://www.w3.org/2000/svg">
<g filter="url(#filter0_b_7978_49212)">
<rect width="64" height="64" rx="8" fill="#F8EDE2" fill-opacity="0.5"/>
<path d="M42 20.8933C42 20.88 42 20.8666 41.9733 20.8533C41.68 20.48 41.2933 20.28 40.84 20.28C40.1333 20.28 39.28 20.7466 38.36 21.7333C37.2667 22.9066 35.5867 22.8133 34.6267 21.5333L33.28 19.7466C32.7467 19.0266 32.04 18.6666 31.3333 18.6666C30.6267 18.6666 29.92 19.0266 29.3867 19.7466L28.0267 21.5466C27.08 22.8133 25.4133 22.9066 24.32 21.7466L24.3067 21.7333C22.8 20.12 21.4533 19.88 20.6933 20.8533C20.6667 20.8666 20.6667 20.88 20.6667 20.8933C20.1867 21.92 20 23.36 20 25.3866V38.6133C20 40.64 20.1867 42.08 20.6667 43.1066C20.6667 43.12 20.68 43.1466 20.6933 43.16C21.4667 44.12 22.8 43.88 24.3067 42.2666L24.32 42.2533C25.4133 41.0933 27.08 41.1866 28.0267 42.4533L29.3867 44.2533C29.92 44.9733 30.6267 45.3333 31.3333 45.3333C32.04 45.3333 32.7467 44.9733 33.28 44.2533L34.6267 42.4666C35.5867 41.1866 37.2667 41.0933 38.36 42.2666C39.28 43.2533 40.1333 43.72 40.84 43.72C41.2933 43.72 41.68 43.5333 41.9733 43.16C41.9867 43.1466 42 43.12 42 43.1066C42.48 42.08 42.6667 40.64 42.6667 38.6133V25.3866C42.6667 23.36 42.48 21.92 42 20.8933ZM34.6667 35.3333H26.6667C26.12 35.3333 25.6667 34.88 25.6667 34.3333C25.6667 33.7866 26.12 33.3333 26.6667 33.3333H34.6667C35.2133 33.3333 35.6667 33.7866 35.6667 34.3333C35.6667 34.88 35.2133 35.3333 34.6667 35.3333ZM37.3333 30.6666H26.6667C26.12 30.6666 25.6667 30.2133 25.6667 29.6666C25.6667 29.12 26.12 28.6666 26.6667 28.6666H37.3333C37.88 28.6666 38.3333 29.12 38.3333 29.6666C38.3333 30.2133 37.88 30.6666 37.3333 30.6666Z" fill="white"/>
<rect x="1" y="1" width="62" height="62" rx="7" stroke="#F8F1DE" stroke-width="2"/>
</g>
<defs>
<filter id="filter0_b_7978_49212" x="-20" y="-20" width="104" height="104" filterUnits="userSpaceOnUse" color-interpolation-filters="sRGB">
<feFlood flood-opacity="0" result="BackgroundImageFix"/>
<feGaussianBlur in="BackgroundImageFix" stdDeviation="10"/>
<feComposite in2="SourceAlpha" operator="in" result="effect1_backgroundBlur_7978_49212"/>
<feBlend mode="normal" in="SourceGraphic" in2="effect1_backgroundBlur_7978_49212" result="shape"/>
</filter>
</defs>
</svg>
