<svg width="340" height="20" viewBox="0 0 340 20" fill="none" xmlns="http://www.w3.org/2000/svg">
<path d="M161.667 5L152.501 14.1667L148.334 10" stroke="#1C5443" stroke-width="2" stroke-linecap="round" stroke-linejoin="round"/>
<path d="M173.581 15L176.857 4.92H178.964L182.24 15H180.721L177.704 5.802H178.082L175.1 15H173.581ZM175.282 12.725V11.353H180.546V12.725H175.282ZM187.045 15.21C186.321 15.21 185.715 15.035 185.225 14.685C184.735 14.3303 184.364 13.852 184.112 13.25C183.86 12.648 183.734 11.969 183.734 11.213C183.734 10.457 183.857 9.778 184.105 9.176C184.357 8.574 184.725 8.10033 185.211 7.755C185.701 7.405 186.303 7.23 187.017 7.23C187.726 7.23 188.337 7.405 188.851 7.755C189.369 8.10033 189.768 8.574 190.048 9.176C190.328 9.77333 190.468 10.4523 190.468 11.213C190.468 11.969 190.328 12.6503 190.048 13.257C189.772 13.859 189.378 14.335 188.865 14.685C188.356 15.035 187.749 15.21 187.045 15.21ZM183.489 18.36V7.44H184.791V12.879H184.959V18.36H183.489ZM186.842 13.887C187.308 13.887 187.693 13.768 187.997 13.53C188.305 13.292 188.533 12.9723 188.683 12.571C188.837 12.165 188.914 11.7123 188.914 11.213C188.914 10.7183 188.837 10.2703 188.683 9.869C188.533 9.46767 188.302 9.148 187.99 8.91C187.677 8.672 187.278 8.553 186.793 8.553C186.335 8.553 185.957 8.665 185.659 8.889C185.365 9.113 185.145 9.42567 185.001 9.827C184.861 10.2283 184.791 10.6903 184.791 11.213C184.791 11.7357 184.861 12.1977 185.001 12.599C185.141 13.0003 185.362 13.3153 185.666 13.544C185.969 13.7727 186.361 13.887 186.842 13.887ZM195.562 15.21C194.839 15.21 194.232 15.035 193.742 14.685C193.252 14.3303 192.881 13.852 192.629 13.25C192.377 12.648 192.251 11.969 192.251 11.213C192.251 10.457 192.375 9.778 192.622 9.176C192.874 8.574 193.243 8.10033 193.728 7.755C194.218 7.405 194.82 7.23 195.534 7.23C196.244 7.23 196.855 7.405 197.368 7.755C197.886 8.10033 198.285 8.574 198.565 9.176C198.845 9.77333 198.985 10.4523 198.985 11.213C198.985 11.969 198.845 12.6503 198.565 13.257C198.29 13.859 197.896 14.335 197.382 14.685C196.874 15.035 196.267 15.21 195.562 15.21ZM192.006 18.36V7.44H193.308V12.879H193.476V18.36H192.006ZM195.359 13.887C195.826 13.887 196.211 13.768 196.514 13.53C196.822 13.292 197.051 12.9723 197.2 12.571C197.354 12.165 197.431 11.7123 197.431 11.213C197.431 10.7183 197.354 10.2703 197.2 9.869C197.051 9.46767 196.82 9.148 196.507 8.91C196.195 8.672 195.796 8.553 195.31 8.553C194.853 8.553 194.475 8.665 194.176 8.889C193.882 9.113 193.663 9.42567 193.518 9.827C193.378 10.2283 193.308 10.6903 193.308 11.213C193.308 11.7357 193.378 12.1977 193.518 12.599C193.658 13.0003 193.88 13.3153 194.183 13.544C194.487 13.7727 194.879 13.887 195.359 13.887ZM200.531 15V7.44H201.833V9.274L201.651 9.036C201.744 8.79333 201.865 8.57167 202.015 8.371C202.164 8.16567 202.337 7.99767 202.533 7.867C202.724 7.727 202.936 7.61967 203.17 7.545C203.408 7.46567 203.65 7.419 203.898 7.405C204.145 7.38633 204.383 7.398 204.612 7.44V8.812C204.364 8.74667 204.089 8.728 203.786 8.756C203.487 8.784 203.212 8.87967 202.96 9.043C202.722 9.197 202.533 9.38367 202.393 9.603C202.257 9.82233 202.159 10.0673 202.099 10.338C202.038 10.604 202.008 10.8863 202.008 11.185V15H200.531ZM209.091 15.21C208.335 15.21 207.679 15.0397 207.124 14.699C206.569 14.3583 206.139 13.8893 205.836 13.292C205.537 12.69 205.388 11.997 205.388 11.213C205.388 10.4243 205.542 9.73133 205.85 9.134C206.158 8.532 206.59 8.06533 207.145 7.734C207.7 7.398 208.349 7.23 209.091 7.23C209.847 7.23 210.503 7.40033 211.058 7.741C211.613 8.08167 212.043 8.55067 212.346 9.148C212.649 9.74533 212.801 10.4337 212.801 11.213C212.801 12.0017 212.647 12.697 212.339 13.299C212.036 13.8963 211.606 14.3653 211.051 14.706C210.496 15.042 209.842 15.21 209.091 15.21ZM209.091 13.831C209.814 13.831 210.353 13.5883 210.708 13.103C211.067 12.613 211.247 11.983 211.247 11.213C211.247 10.4243 211.065 9.79433 210.701 9.323C210.342 8.847 209.805 8.609 209.091 8.609C208.601 8.609 208.197 8.721 207.88 8.945C207.563 9.16433 207.327 9.47 207.173 9.862C207.019 10.2493 206.942 10.6997 206.942 11.213C206.942 12.0063 207.124 12.641 207.488 13.117C207.852 13.593 208.386 13.831 209.091 13.831ZM216.11 15L213.366 7.44H214.843L216.852 13.166L218.861 7.44H220.338L217.594 15H216.11ZM224.679 15.21C223.927 15.21 223.267 15.0467 222.698 14.72C222.133 14.3887 221.692 13.929 221.375 13.341C221.062 12.7483 220.906 12.0623 220.906 11.283C220.906 10.457 221.06 9.74067 221.368 9.134C221.68 8.52733 222.114 8.05833 222.67 7.727C223.225 7.39567 223.871 7.23 224.609 7.23C225.379 7.23 226.034 7.40967 226.576 7.769C227.117 8.12367 227.521 8.63 227.787 9.288C228.057 9.946 228.165 10.7277 228.109 11.633H226.646V11.101C226.636 10.2237 226.468 9.575 226.142 9.155C225.82 8.735 225.327 8.525 224.665 8.525C223.932 8.525 223.381 8.756 223.013 9.218C222.644 9.68 222.46 10.3473 222.46 11.22C222.46 12.0507 222.644 12.6947 223.013 13.152C223.381 13.6047 223.913 13.831 224.609 13.831C225.066 13.831 225.46 13.7283 225.792 13.523C226.128 13.313 226.389 13.0143 226.576 12.627L228.011 13.082C227.717 13.7587 227.271 14.2837 226.674 14.657C226.076 15.0257 225.411 15.21 224.679 15.21ZM221.984 11.633V10.492H227.381V11.633H221.984Z" fill="#1C5443"/>
<path d="M276 5L266 15" stroke="#872D10" stroke-width="2" stroke-linecap="round" stroke-linejoin="round"/>
<path d="M266 5L276 15" stroke="#872D10" stroke-width="2" stroke-linecap="round" stroke-linejoin="round"/>
<path d="M290.454 15V4.92H293.611C293.704 4.92 293.877 4.92233 294.129 4.927C294.385 4.93167 294.63 4.95033 294.864 4.983C295.652 5.081 296.315 5.36333 296.852 5.83C297.393 6.29667 297.801 6.88933 298.077 7.608C298.352 8.322 298.49 9.106 298.49 9.96C298.49 10.8187 298.352 11.6073 298.077 12.326C297.801 13.04 297.393 13.6303 296.852 14.097C296.315 14.559 295.652 14.839 294.864 14.937C294.63 14.9697 294.385 14.9883 294.129 14.993C293.877 14.9977 293.704 15 293.611 15H290.454ZM291.952 13.607H293.611C293.769 13.607 293.958 13.6023 294.178 13.593C294.397 13.5837 294.591 13.565 294.759 13.537C295.272 13.439 295.687 13.2173 296.005 12.872C296.327 12.522 296.562 12.0927 296.712 11.584C296.861 11.0753 296.936 10.534 296.936 9.96C296.936 9.36733 296.859 8.819 296.705 8.315C296.551 7.80633 296.313 7.38167 295.991 7.041C295.673 6.69567 295.263 6.47633 294.759 6.383C294.591 6.35033 294.395 6.33167 294.171 6.327C293.951 6.31767 293.765 6.313 293.611 6.313H291.952V13.607ZM303.473 15.21C302.721 15.21 302.061 15.0467 301.492 14.72C300.927 14.3887 300.486 13.929 300.169 13.341C299.856 12.7483 299.7 12.0623 299.7 11.283C299.7 10.457 299.854 9.74067 300.162 9.134C300.474 8.52733 300.908 8.05833 301.464 7.727C302.019 7.39567 302.665 7.23 303.403 7.23C304.173 7.23 304.828 7.40967 305.37 7.769C305.911 8.12367 306.315 8.63 306.581 9.288C306.851 9.946 306.959 10.7277 306.903 11.633H305.44V11.101C305.43 10.2237 305.262 9.575 304.936 9.155C304.614 8.735 304.121 8.525 303.459 8.525C302.726 8.525 302.175 8.756 301.807 9.218C301.438 9.68 301.254 10.3473 301.254 11.22C301.254 12.0507 301.438 12.6947 301.807 13.152C302.175 13.6047 302.707 13.831 303.403 13.831C303.86 13.831 304.254 13.7283 304.586 13.523C304.922 13.313 305.183 13.0143 305.37 12.627L306.805 13.082C306.511 13.7587 306.065 14.2837 305.468 14.657C304.87 15.0257 304.205 15.21 303.473 15.21ZM300.778 11.633V10.492H306.175V11.633H300.778ZM311.707 15.21C310.932 15.21 310.274 15.0373 309.733 14.692C309.192 14.3467 308.776 13.873 308.487 13.271C308.202 12.669 308.058 11.9853 308.053 11.22C308.058 10.4407 308.207 9.75233 308.501 9.155C308.795 8.553 309.215 8.08167 309.761 7.741C310.307 7.40033 310.963 7.23 311.728 7.23C312.554 7.23 313.259 7.43533 313.842 7.846C314.43 8.25667 314.817 8.819 315.004 9.533L313.548 9.953C313.403 9.52833 313.165 9.19933 312.834 8.966C312.507 8.728 312.132 8.609 311.707 8.609C311.226 8.609 310.832 8.72333 310.524 8.952C310.216 9.176 309.987 9.484 309.838 9.876C309.689 10.268 309.612 10.716 309.607 11.22C309.612 11.9993 309.789 12.6293 310.139 13.11C310.494 13.5907 311.016 13.831 311.707 13.831C312.178 13.831 312.559 13.7237 312.848 13.509C313.142 13.2897 313.366 12.977 313.52 12.571L315.004 12.921C314.757 13.6583 314.348 14.2253 313.779 14.622C313.21 15.014 312.519 15.21 311.707 15.21ZM316.365 15V4.71H317.828V15H316.365ZM320.07 6.201V4.78H321.533V6.201H320.07ZM320.07 15V7.44H321.533V15H320.07ZM328.941 15V11.283C328.941 10.989 328.916 10.688 328.864 10.38C328.818 10.0673 328.724 9.778 328.584 9.512C328.449 9.246 328.255 9.03133 328.003 8.868C327.756 8.70467 327.432 8.623 327.03 8.623C326.769 8.623 326.522 8.66733 326.288 8.756C326.055 8.84 325.85 8.97767 325.672 9.169C325.5 9.36033 325.362 9.61233 325.259 9.925C325.161 10.2377 325.112 10.618 325.112 11.066L324.202 10.723C324.202 10.037 324.331 9.43267 324.587 8.91C324.844 8.38267 325.213 7.972 325.693 7.678C326.174 7.384 326.755 7.237 327.436 7.237C327.959 7.237 328.398 7.321 328.752 7.489C329.107 7.657 329.394 7.87867 329.613 8.154C329.837 8.42467 330.008 8.721 330.124 9.043C330.241 9.365 330.32 9.68 330.362 9.988C330.404 10.296 330.425 10.5667 330.425 10.8V15H328.941ZM323.628 15V7.44H324.937V9.624H325.112V15H323.628ZM335.506 15.21C334.755 15.21 334.094 15.0467 333.525 14.72C332.96 14.3887 332.519 13.929 332.202 13.341C331.889 12.7483 331.733 12.0623 331.733 11.283C331.733 10.457 331.887 9.74067 332.195 9.134C332.508 8.52733 332.942 8.05833 333.497 7.727C334.052 7.39567 334.699 7.23 335.436 7.23C336.206 7.23 336.862 7.40967 337.403 7.769C337.944 8.12367 338.348 8.63 338.614 9.288C338.885 9.946 338.992 10.7277 338.936 11.633H337.473V11.101C337.464 10.2237 337.296 9.575 336.969 9.155C336.647 8.735 336.155 8.525 335.492 8.525C334.759 8.525 334.209 8.756 333.84 9.218C333.471 9.68 333.287 10.3473 333.287 11.22C333.287 12.0507 333.471 12.6947 333.84 13.152C334.209 13.6047 334.741 13.831 335.436 13.831C335.893 13.831 336.288 13.7283 336.619 13.523C336.955 13.313 337.216 13.0143 337.403 12.627L338.838 13.082C338.544 13.7587 338.098 14.2837 337.501 14.657C336.904 15.0257 336.239 15.21 335.506 15.21ZM332.811 11.633V10.492H338.208V11.633H332.811Z" fill="#872D10"/>
</svg>
