<svg width="364" height="61" viewBox="0 0 364 61" fill="none" xmlns="http://www.w3.org/2000/svg">
<rect width="364" height="61" fill="white"/>
<path d="M20.84 31V22.36H24.332C24.416 22.36 24.52 22.364 24.644 22.372C24.768 22.376 24.886 22.388 24.998 22.408C25.478 22.484 25.878 22.648 26.198 22.9C26.522 23.152 26.764 23.47 26.924 23.854C27.084 24.238 27.164 24.662 27.164 25.126C27.164 25.814 26.988 26.408 26.636 26.908C26.284 27.404 25.756 27.714 25.052 27.838L24.542 27.898H22.094V31H20.84ZM25.892 31L24.188 27.484L25.454 27.16L27.326 31H25.892ZM22.094 26.71H24.284C24.364 26.71 24.452 26.706 24.548 26.698C24.648 26.69 24.742 26.676 24.83 26.656C25.086 26.596 25.292 26.486 25.448 26.326C25.604 26.162 25.716 25.974 25.784 25.762C25.852 25.55 25.886 25.338 25.886 25.126C25.886 24.914 25.852 24.704 25.784 24.496C25.716 24.284 25.604 24.098 25.448 23.938C25.292 23.774 25.086 23.662 24.83 23.602C24.742 23.578 24.648 23.562 24.548 23.554C24.452 23.546 24.364 23.542 24.284 23.542H22.094V26.71ZM31.5187 31.18C30.8747 31.18 30.3087 31.04 29.8207 30.76C29.3367 30.476 28.9587 30.082 28.6867 29.578C28.4187 29.07 28.2847 28.482 28.2847 27.814C28.2847 27.106 28.4167 26.492 28.6807 25.972C28.9487 25.452 29.3207 25.05 29.7967 24.766C30.2727 24.482 30.8267 24.34 31.4587 24.34C32.1187 24.34 32.6807 24.494 33.1447 24.802C33.6087 25.106 33.9547 25.54 34.1827 26.104C34.4147 26.668 34.5067 27.338 34.4587 28.114H33.2047V27.658C33.1967 26.906 33.0527 26.35 32.7727 25.99C32.4967 25.63 32.0747 25.45 31.5067 25.45C30.8787 25.45 30.4067 25.648 30.0907 26.044C29.7747 26.44 29.6167 27.012 29.6167 27.76C29.6167 28.472 29.7747 29.024 30.0907 29.416C30.4067 29.804 30.8627 29.998 31.4587 29.998C31.8507 29.998 32.1887 29.91 32.4727 29.734C32.7607 29.554 32.9847 29.298 33.1447 28.966L34.3747 29.356C34.1227 29.936 33.7407 30.386 33.2287 30.706C32.7167 31.022 32.1467 31.18 31.5187 31.18ZM29.2087 28.114V27.136H33.8347V28.114H29.2087ZM38.5768 31.18C37.9128 31.18 37.3488 31.032 36.8848 30.736C36.4208 30.44 36.0648 30.034 35.8168 29.518C35.5728 29.002 35.4488 28.416 35.4448 27.76C35.4488 27.092 35.5768 26.502 35.8288 25.99C36.0808 25.474 36.4408 25.07 36.9088 24.778C37.3768 24.486 37.9388 24.34 38.5948 24.34C39.3028 24.34 39.9068 24.516 40.4068 24.868C40.9108 25.22 41.2428 25.702 41.4028 26.314L40.1548 26.674C40.0308 26.31 39.8268 26.028 39.5428 25.828C39.2628 25.624 38.9408 25.522 38.5768 25.522C38.1648 25.522 37.8268 25.62 37.5628 25.816C37.2988 26.008 37.1028 26.272 36.9748 26.608C36.8468 26.944 36.7808 27.328 36.7768 27.76C36.7808 28.428 36.9328 28.968 37.2328 29.38C37.5368 29.792 37.9848 29.998 38.5768 29.998C38.9808 29.998 39.3068 29.906 39.5548 29.722C39.8068 29.534 39.9988 29.266 40.1308 28.918L41.4028 29.218C41.1908 29.85 40.8408 30.336 40.3528 30.676C39.8648 31.012 39.2728 31.18 38.5768 31.18ZM45.3234 31.18C44.6794 31.18 44.1134 31.04 43.6254 30.76C43.1414 30.476 42.7634 30.082 42.4914 29.578C42.2234 29.07 42.0894 28.482 42.0894 27.814C42.0894 27.106 42.2214 26.492 42.4854 25.972C42.7534 25.452 43.1254 25.05 43.6014 24.766C44.0774 24.482 44.6314 24.34 45.2634 24.34C45.9234 24.34 46.4854 24.494 46.9494 24.802C47.4134 25.106 47.7594 25.54 47.9874 26.104C48.2194 26.668 48.3114 27.338 48.2634 28.114H47.0094V27.658C47.0014 26.906 46.8574 26.35 46.5774 25.99C46.3014 25.63 45.8794 25.45 45.3114 25.45C44.6834 25.45 44.2114 25.648 43.8954 26.044C43.5794 26.44 43.4214 27.012 43.4214 27.76C43.4214 28.472 43.5794 29.024 43.8954 29.416C44.2114 29.804 44.6674 29.998 45.2634 29.998C45.6554 29.998 45.9934 29.91 46.2774 29.734C46.5654 29.554 46.7894 29.298 46.9494 28.966L48.1794 29.356C47.9274 29.936 47.5454 30.386 47.0334 30.706C46.5214 31.022 45.9514 31.18 45.3234 31.18ZM43.0134 28.114V27.136H47.6394V28.114H43.0134ZM53.9818 31V27.814C53.9818 27.562 53.9598 27.304 53.9158 27.04C53.8758 26.772 53.7958 26.524 53.6758 26.296C53.5598 26.068 53.3938 25.884 53.1778 25.744C52.9658 25.604 52.6878 25.534 52.3438 25.534C52.1198 25.534 51.9078 25.572 51.7078 25.648C51.5078 25.72 51.3318 25.838 51.1798 26.002C51.0318 26.166 50.9138 26.382 50.8258 26.65C50.7418 26.918 50.6998 27.244 50.6998 27.628L49.9198 27.334C49.9198 26.746 50.0298 26.228 50.2498 25.78C50.4698 25.328 50.7858 24.976 51.1978 24.724C51.6098 24.472 52.1078 24.346 52.6918 24.346C53.1398 24.346 53.5158 24.418 53.8198 24.562C54.1238 24.706 54.3698 24.896 54.5578 25.132C54.7498 25.364 54.8958 25.618 54.9958 25.894C55.0958 26.17 55.1638 26.44 55.1998 26.704C55.2358 26.968 55.2538 27.2 55.2538 27.4V31H53.9818ZM49.4278 31V24.52H50.5498V26.392H50.6998V31H49.4278ZM60.5246 31C60.1166 31.08 59.7166 31.114 59.3246 31.102C58.9326 31.09 58.5826 31.014 58.2746 30.874C57.9666 30.734 57.7346 30.514 57.5786 30.214C57.4386 29.946 57.3626 29.674 57.3506 29.398C57.3426 29.118 57.3386 28.802 57.3386 28.45V22.72H58.5986V28.39C58.5986 28.65 58.6006 28.876 58.6046 29.068C58.6126 29.26 58.6546 29.422 58.7306 29.554C58.8746 29.802 59.1026 29.944 59.4146 29.98C59.7306 30.012 60.1006 29.998 60.5246 29.938V31ZM56.0966 25.528V24.52H60.5246V25.528H56.0966ZM67.3351 31.18C66.7151 31.18 66.1951 31.03 65.7751 30.73C65.3551 30.426 65.0371 30.016 64.8211 29.5C64.6051 28.984 64.4971 28.402 64.4971 27.754C64.4971 27.106 64.6031 26.524 64.8151 26.008C65.0311 25.492 65.3471 25.086 65.7631 24.79C66.1831 24.49 66.6991 24.34 67.3111 24.34C67.9191 24.34 68.4431 24.49 68.8831 24.79C69.3271 25.086 69.6691 25.492 69.9091 26.008C70.1491 26.52 70.2691 27.102 70.2691 27.754C70.2691 28.402 70.1491 28.986 69.9091 29.506C69.6731 30.022 69.3351 30.43 68.8951 30.73C68.4591 31.03 67.9391 31.18 67.3351 31.18ZM64.2871 31V22.36H65.5471V26.338H65.4031V31H64.2871ZM67.1611 30.046C67.5611 30.046 67.8911 29.944 68.1511 29.74C68.4151 29.536 68.6111 29.262 68.7391 28.918C68.8711 28.57 68.9371 28.182 68.9371 27.754C68.9371 27.33 68.8711 26.946 68.7391 26.602C68.6111 26.258 68.4131 25.984 68.1451 25.78C67.8771 25.576 67.5351 25.474 67.1191 25.474C66.7271 25.474 66.4031 25.57 66.1471 25.762C65.8951 25.954 65.7071 26.222 65.5831 26.566C65.4631 26.91 65.4031 27.306 65.4031 27.754C65.4031 28.202 65.4631 28.598 65.5831 28.942C65.7031 29.286 65.8931 29.556 66.1531 29.752C66.4131 29.948 66.7491 30.046 67.1611 30.046ZM71.7139 23.458V22.24H72.9679V23.458H71.7139ZM71.7139 31V24.52H72.9679V31H71.7139ZM74.8897 31V22.18H76.1437V31H74.8897ZM78.0655 31V22.18H79.3195V31H78.0655ZM83.5993 31.174C82.8113 31.174 82.1693 31 81.6733 30.652C81.1773 30.304 80.8733 29.814 80.7613 29.182L82.0452 28.984C82.1253 29.32 82.3093 29.586 82.5973 29.782C82.8893 29.974 83.2513 30.07 83.6833 30.07C84.0753 30.07 84.3813 29.99 84.6013 29.83C84.8253 29.67 84.9373 29.45 84.9373 29.17C84.9373 29.006 84.8973 28.874 84.8173 28.774C84.7413 28.67 84.5793 28.572 84.3313 28.48C84.0833 28.388 83.7053 28.274 83.1973 28.138C82.6413 27.994 82.1993 27.84 81.8713 27.676C81.5473 27.508 81.3153 27.314 81.1753 27.094C81.0393 26.87 80.9713 26.6 80.9713 26.284C80.9713 25.892 81.0753 25.55 81.2833 25.258C81.4913 24.966 81.7833 24.74 82.1593 24.58C82.5393 24.42 82.9833 24.34 83.4913 24.34C83.9873 24.34 84.4293 24.418 84.8173 24.574C85.2053 24.73 85.5193 24.952 85.7593 25.24C85.9993 25.524 86.1433 25.858 86.1913 26.242L84.9073 26.476C84.8633 26.164 84.7173 25.918 84.4693 25.738C84.2213 25.558 83.8993 25.46 83.5033 25.444C83.1233 25.428 82.8153 25.492 82.5793 25.636C82.3433 25.776 82.2253 25.97 82.2253 26.218C82.2253 26.362 82.2693 26.484 82.3573 26.584C82.4493 26.684 82.6253 26.78 82.8853 26.872C83.1453 26.964 83.5293 27.074 84.0373 27.202C84.5813 27.342 85.0133 27.498 85.3333 27.67C85.6533 27.838 85.8813 28.04 86.0173 28.276C86.1573 28.508 86.2273 28.79 86.2273 29.122C86.2273 29.762 85.9933 30.264 85.5253 30.628C85.0613 30.992 84.4193 31.174 83.5993 31.174ZM92.7952 31.18C92.3112 31.18 91.8592 31.11 91.4392 30.97C91.0192 30.826 90.6672 30.602 90.3832 30.298C90.1632 30.054 89.9992 29.786 89.8912 29.494C89.7872 29.198 89.7292 28.884 89.7172 28.552C89.7172 28.228 89.7632 27.914 89.8552 27.61C89.9512 27.302 90.1012 27.028 90.3052 26.788C90.3972 26.676 90.4992 26.58 90.6112 26.5C90.7232 26.416 90.8352 26.342 90.9472 26.278C90.6912 25.998 90.4972 25.732 90.3652 25.48C90.2332 25.224 90.1672 24.922 90.1672 24.574C90.1672 24.086 90.2952 23.648 90.5512 23.26C90.8072 22.868 91.1572 22.586 91.6012 22.414C91.8052 22.33 92.0132 22.274 92.2252 22.246C92.4372 22.214 92.6432 22.198 92.8432 22.198C93.2032 22.198 93.5512 22.25 93.8872 22.354C94.2232 22.458 94.5112 22.628 94.7512 22.864C94.9032 23.004 95.0312 23.162 95.1352 23.338C95.2432 23.514 95.3252 23.694 95.3812 23.878L94.1452 24.166C94.0772 23.974 93.9652 23.812 93.8092 23.68C93.6772 23.564 93.5232 23.486 93.3472 23.446C93.1752 23.402 93.0032 23.38 92.8312 23.38C92.5472 23.38 92.2912 23.434 92.0632 23.542C91.8552 23.642 91.6992 23.78 91.5952 23.956C91.4912 24.128 91.4392 24.336 91.4392 24.58C91.4392 24.796 91.4772 24.97 91.5532 25.102C91.6292 25.234 91.7312 25.372 91.8592 25.516C91.9352 25.6 92.0252 25.69 92.1292 25.786C92.2372 25.882 92.3472 25.982 92.4592 26.086L94.8112 28.276C94.8192 28.188 94.8252 28.094 94.8292 27.994C94.8332 27.894 94.8352 27.798 94.8352 27.706L94.8292 26.584H95.9512V28.066C95.9512 28.318 95.9432 28.546 95.9272 28.75C95.9152 28.95 95.8912 29.114 95.8552 29.242L96.9352 30.244L96.1252 31.114L95.2552 30.286C95.0712 30.47 94.8652 30.626 94.6372 30.754C94.4092 30.878 94.1792 30.97 93.9472 31.03C93.7512 31.09 93.5572 31.13 93.3652 31.15C93.1772 31.17 92.9872 31.18 92.7952 31.18ZM92.8312 29.98C92.9912 29.98 93.1392 29.972 93.2752 29.956C93.4112 29.936 93.5412 29.9 93.6652 29.848C93.8332 29.78 93.9692 29.71 94.0732 29.638C94.1812 29.566 94.2712 29.496 94.3432 29.428L91.8832 27.172C91.7592 27.216 91.6432 27.274 91.5352 27.346C91.4312 27.414 91.3412 27.494 91.2652 27.586C91.1732 27.702 91.1032 27.838 91.0552 27.994C91.0112 28.146 90.9912 28.31 90.9952 28.486C90.9952 28.678 91.0252 28.854 91.0852 29.014C91.1492 29.17 91.2312 29.31 91.3312 29.434C91.4912 29.626 91.7132 29.766 91.9972 29.854C92.2852 29.938 92.5632 29.98 92.8312 29.98ZM100.425 23.458V22.24H101.679V23.458H100.425ZM100.425 31V24.52H101.679V31H100.425ZM108.029 31V27.814C108.029 27.562 108.007 27.304 107.963 27.04C107.923 26.772 107.843 26.524 107.723 26.296C107.607 26.068 107.441 25.884 107.225 25.744C107.013 25.604 106.735 25.534 106.391 25.534C106.167 25.534 105.955 25.572 105.755 25.648C105.555 25.72 105.379 25.838 105.227 26.002C105.079 26.166 104.961 26.382 104.873 26.65C104.789 26.918 104.747 27.244 104.747 27.628L103.967 27.334C103.967 26.746 104.077 26.228 104.297 25.78C104.517 25.328 104.833 24.976 105.245 24.724C105.657 24.472 106.155 24.346 106.739 24.346C107.187 24.346 107.563 24.418 107.867 24.562C108.171 24.706 108.417 24.896 108.605 25.132C108.797 25.364 108.943 25.618 109.043 25.894C109.143 26.17 109.211 26.44 109.247 26.704C109.283 26.968 109.301 27.2 109.301 27.4V31H108.029ZM103.475 31V24.52H104.597V26.392H104.747V31H103.475ZM112.615 31L110.263 24.52H111.529L113.251 29.428L114.973 24.52H116.239L113.887 31H112.615ZM119.9 31.18C119.252 31.18 118.69 31.034 118.214 30.742C117.738 30.45 117.37 30.048 117.11 29.536C116.854 29.02 116.726 28.426 116.726 27.754C116.726 27.078 116.858 26.484 117.122 25.972C117.386 25.456 117.756 25.056 118.232 24.772C118.708 24.484 119.264 24.34 119.9 24.34C120.548 24.34 121.11 24.486 121.586 24.778C122.062 25.07 122.43 25.472 122.69 25.984C122.95 26.496 123.08 27.086 123.08 27.754C123.08 28.43 122.948 29.026 122.684 29.542C122.424 30.054 122.056 30.456 121.58 30.748C121.104 31.036 120.544 31.18 119.9 31.18ZM119.9 29.998C120.52 29.998 120.982 29.79 121.286 29.374C121.594 28.954 121.748 28.414 121.748 27.754C121.748 27.078 121.592 26.538 121.28 26.134C120.972 25.726 120.512 25.522 119.9 25.522C119.48 25.522 119.134 25.618 118.862 25.81C118.59 25.998 118.388 26.26 118.256 26.596C118.124 26.928 118.058 27.314 118.058 27.754C118.058 28.434 118.214 28.978 118.526 29.386C118.838 29.794 119.296 29.998 119.9 29.998ZM124.519 23.458V22.24H125.773V23.458H124.519ZM124.519 31V24.52H125.773V31H124.519ZM130.346 31.18C129.682 31.18 129.118 31.032 128.654 30.736C128.19 30.44 127.834 30.034 127.586 29.518C127.342 29.002 127.218 28.416 127.214 27.76C127.218 27.092 127.346 26.502 127.598 25.99C127.85 25.474 128.21 25.07 128.678 24.778C129.146 24.486 129.708 24.34 130.364 24.34C131.072 24.34 131.676 24.516 132.176 24.868C132.68 25.22 133.012 25.702 133.172 26.314L131.924 26.674C131.8 26.31 131.596 26.028 131.312 25.828C131.032 25.624 130.71 25.522 130.346 25.522C129.934 25.522 129.596 25.62 129.332 25.816C129.068 26.008 128.872 26.272 128.744 26.608C128.616 26.944 128.55 27.328 128.546 27.76C128.55 28.428 128.702 28.968 129.002 29.38C129.306 29.792 129.754 29.998 130.346 29.998C130.75 29.998 131.076 29.906 131.324 29.722C131.576 29.534 131.768 29.266 131.9 28.918L133.172 29.218C132.96 29.85 132.61 30.336 132.122 30.676C131.634 31.012 131.042 31.18 130.346 31.18ZM137.093 31.18C136.449 31.18 135.883 31.04 135.395 30.76C134.911 30.476 134.533 30.082 134.261 29.578C133.993 29.07 133.859 28.482 133.859 27.814C133.859 27.106 133.991 26.492 134.255 25.972C134.523 25.452 134.895 25.05 135.371 24.766C135.847 24.482 136.401 24.34 137.033 24.34C137.693 24.34 138.255 24.494 138.719 24.802C139.183 25.106 139.529 25.54 139.757 26.104C139.989 26.668 140.081 27.338 140.033 28.114H138.779V27.658C138.771 26.906 138.627 26.35 138.347 25.99C138.071 25.63 137.649 25.45 137.081 25.45C136.453 25.45 135.981 25.648 135.665 26.044C135.349 26.44 135.191 27.012 135.191 27.76C135.191 28.472 135.349 29.024 135.665 29.416C135.981 29.804 136.437 29.998 137.033 29.998C137.425 29.998 137.763 29.91 138.047 29.734C138.335 29.554 138.559 29.298 138.719 28.966L139.949 29.356C139.697 29.936 139.315 30.386 138.803 30.706C138.291 31.022 137.721 31.18 137.093 31.18ZM134.783 28.114V27.136H139.409V28.114H134.783ZM143.857 31.174C143.069 31.174 142.427 31 141.931 30.652C141.435 30.304 141.131 29.814 141.019 29.182L142.303 28.984C142.383 29.32 142.567 29.586 142.855 29.782C143.147 29.974 143.509 30.07 143.941 30.07C144.333 30.07 144.639 29.99 144.859 29.83C145.083 29.67 145.195 29.45 145.195 29.17C145.195 29.006 145.155 28.874 145.075 28.774C144.999 28.67 144.837 28.572 144.589 28.48C144.341 28.388 143.963 28.274 143.455 28.138C142.899 27.994 142.457 27.84 142.129 27.676C141.805 27.508 141.573 27.314 141.433 27.094C141.297 26.87 141.229 26.6 141.229 26.284C141.229 25.892 141.333 25.55 141.541 25.258C141.749 24.966 142.041 24.74 142.417 24.58C142.797 24.42 143.241 24.34 143.749 24.34C144.245 24.34 144.687 24.418 145.075 24.574C145.463 24.73 145.777 24.952 146.017 25.24C146.257 25.524 146.401 25.858 146.449 26.242L145.165 26.476C145.121 26.164 144.975 25.918 144.727 25.738C144.479 25.558 144.157 25.46 143.761 25.444C143.381 25.428 143.073 25.492 142.837 25.636C142.601 25.776 142.483 25.97 142.483 26.218C142.483 26.362 142.527 26.484 142.615 26.584C142.707 26.684 142.883 26.78 143.143 26.872C143.403 26.964 143.787 27.074 144.295 27.202C144.839 27.342 145.271 27.498 145.591 27.67C145.911 27.838 146.139 28.04 146.275 28.276C146.415 28.508 146.485 28.79 146.485 29.122C146.485 29.762 146.251 30.264 145.783 30.628C145.319 30.992 144.677 31.174 143.857 31.174Z" fill="#202020"/>
<path d="M21.996 44V39.028H20.08V38.24H24.748V39.028H22.832V44H21.996ZM28.4201 44V41.876C28.4201 41.708 28.4055 41.536 28.3761 41.36C28.3495 41.1813 28.2961 41.016 28.2161 40.864C28.1388 40.712 28.0281 40.5893 27.8841 40.496C27.7428 40.4027 27.5575 40.356 27.3281 40.356C27.1788 40.356 27.0375 40.3813 26.9041 40.432C26.7708 40.48 26.6535 40.5587 26.5521 40.668C26.4535 40.7773 26.3748 40.9213 26.3161 41.1C26.2601 41.2787 26.2321 41.496 26.2321 41.752L25.7121 41.556C25.7121 41.164 25.7855 40.8187 25.9321 40.52C26.0788 40.2187 26.2895 39.984 26.5641 39.816C26.8388 39.648 27.1708 39.564 27.5601 39.564C27.8588 39.564 28.1095 39.612 28.3121 39.708C28.5148 39.804 28.6788 39.9307 28.8041 40.088C28.9321 40.2427 29.0295 40.412 29.0961 40.596C29.1628 40.78 29.2081 40.96 29.2321 41.136C29.2561 41.312 29.2681 41.4667 29.2681 41.6V44H28.4201ZM25.3841 44V38.24H26.1321V41.348H26.2321V44H25.3841ZM32.226 44.12C31.7967 44.12 31.4193 44.0267 31.094 43.84C30.7713 43.6507 30.5193 43.388 30.338 43.052C30.1593 42.7133 30.07 42.3213 30.07 41.876C30.07 41.404 30.158 40.9947 30.334 40.648C30.5127 40.3013 30.7607 40.0333 31.078 39.844C31.3953 39.6547 31.7647 39.56 32.186 39.56C32.626 39.56 33.0007 39.6627 33.31 39.868C33.6193 40.0707 33.85 40.36 34.002 40.736C34.1567 41.112 34.218 41.5587 34.186 42.076H33.35V41.772C33.3447 41.2707 33.2487 40.9 33.062 40.66C32.878 40.42 32.5967 40.3 32.218 40.3C31.7993 40.3 31.4847 40.432 31.274 40.696C31.0633 40.96 30.958 41.3413 30.958 41.84C30.958 42.3147 31.0633 42.6827 31.274 42.944C31.4847 43.2027 31.7887 43.332 32.186 43.332C32.4473 43.332 32.6727 43.2733 32.862 43.156C33.054 43.036 33.2033 42.8653 33.31 42.644L34.13 42.904C33.962 43.2907 33.7073 43.5907 33.366 43.804C33.0247 44.0147 32.6447 44.12 32.226 44.12ZM30.686 42.076V41.424H33.77V42.076H30.686ZM36.765 44V38.12H37.601V44H36.765ZM40.0222 44.12C39.7022 44.12 39.4342 44.0613 39.2182 43.944C39.0022 43.824 38.8382 43.6667 38.7262 43.472C38.6169 43.2747 38.5622 43.0587 38.5622 42.824C38.5622 42.6053 38.6009 42.4133 38.6782 42.248C38.7555 42.0827 38.8702 41.9427 39.0222 41.828C39.1742 41.7107 39.3609 41.616 39.5822 41.544C39.7742 41.488 39.9915 41.4387 40.2342 41.396C40.4769 41.3533 40.7315 41.3133 40.9982 41.276C41.2675 41.2387 41.5342 41.2013 41.7982 41.164L41.4942 41.332C41.4995 40.9933 41.4275 40.7427 41.2782 40.58C41.1315 40.4147 40.8782 40.332 40.5182 40.332C40.2915 40.332 40.0835 40.3853 39.8942 40.492C39.7049 40.596 39.5729 40.7693 39.4982 41.012L38.7182 40.772C38.8249 40.4013 39.0275 40.1067 39.3262 39.888C39.6275 39.6693 40.0275 39.56 40.5262 39.56C40.9129 39.56 41.2489 39.6267 41.5342 39.76C41.8222 39.8907 42.0329 40.0987 42.1662 40.384C42.2355 40.5253 42.2782 40.6747 42.2942 40.832C42.3102 40.9893 42.3182 41.1587 42.3182 41.34V44H41.5782V43.012L41.7222 43.14C41.5435 43.4707 41.3155 43.7173 41.0382 43.88C40.7635 44.04 40.4249 44.12 40.0222 44.12ZM40.1702 43.436C40.4075 43.436 40.6115 43.3947 40.7822 43.312C40.9529 43.2267 41.0902 43.1187 41.1942 42.988C41.2982 42.8573 41.3662 42.7213 41.3982 42.58C41.4435 42.452 41.4689 42.308 41.4742 42.148C41.4822 41.988 41.4862 41.86 41.4862 41.764L41.7582 41.864C41.4942 41.904 41.2542 41.94 41.0382 41.972C40.8222 42.004 40.6262 42.036 40.4502 42.068C40.2769 42.0973 40.1222 42.1333 39.9862 42.176C39.8715 42.216 39.7689 42.264 39.6782 42.32C39.5902 42.376 39.5195 42.444 39.4662 42.524C39.4155 42.604 39.3902 42.7013 39.3902 42.816C39.3902 42.928 39.4182 43.032 39.4742 43.128C39.5302 43.2213 39.6155 43.296 39.7302 43.352C39.8449 43.408 39.9915 43.436 40.1702 43.436ZM45.8289 44C45.5569 44.0533 45.2902 44.076 45.0289 44.068C44.7675 44.06 44.5342 44.0093 44.3289 43.916C44.1235 43.8227 43.9689 43.676 43.8649 43.476C43.7715 43.2973 43.7209 43.116 43.7129 42.932C43.7075 42.7453 43.7049 42.5347 43.7049 42.3V38.48H44.5449V42.26C44.5449 42.4333 44.5462 42.584 44.5489 42.712C44.5542 42.84 44.5822 42.948 44.6329 43.036C44.7289 43.2013 44.8809 43.296 45.0889 43.32C45.2995 43.3413 45.5462 43.332 45.8289 43.292V44ZM42.8769 40.352V39.68H45.8289V40.352H42.8769ZM48.4604 44.12C48.031 44.12 47.6537 44.0267 47.3284 43.84C47.0057 43.6507 46.7537 43.388 46.5724 43.052C46.3937 42.7133 46.3044 42.3213 46.3044 41.876C46.3044 41.404 46.3924 40.9947 46.5684 40.648C46.747 40.3013 46.995 40.0333 47.3124 39.844C47.6297 39.6547 47.999 39.56 48.4204 39.56C48.8604 39.56 49.235 39.6627 49.5444 39.868C49.8537 40.0707 50.0844 40.36 50.2364 40.736C50.391 41.112 50.4524 41.5587 50.4204 42.076H49.5844V41.772C49.579 41.2707 49.483 40.9 49.2964 40.66C49.1124 40.42 48.831 40.3 48.4524 40.3C48.0337 40.3 47.719 40.432 47.5084 40.696C47.2977 40.96 47.1924 41.3413 47.1924 41.84C47.1924 42.3147 47.2977 42.6827 47.5084 42.944C47.719 43.2027 48.023 43.332 48.4204 43.332C48.6817 43.332 48.907 43.2733 49.0964 43.156C49.2884 43.036 49.4377 42.8653 49.5444 42.644L50.3644 42.904C50.1964 43.2907 49.9417 43.5907 49.6004 43.804C49.259 44.0147 48.879 44.12 48.4604 44.12ZM46.9204 42.076V41.424H50.0044V42.076H46.9204ZM52.9698 44.116C52.4445 44.116 52.0165 44 51.6858 43.768C51.3551 43.536 51.1525 43.2093 51.0778 42.788L51.9338 42.656C51.9871 42.88 52.1098 43.0573 52.3018 43.188C52.4965 43.316 52.7378 43.38 53.0258 43.38C53.2871 43.38 53.4911 43.3267 53.6378 43.22C53.7871 43.1133 53.8618 42.9667 53.8618 42.78C53.8618 42.6707 53.8351 42.5827 53.7818 42.516C53.7311 42.4467 53.6231 42.3813 53.4578 42.32C53.2925 42.2587 53.0405 42.1827 52.7018 42.092C52.3311 41.996 52.0365 41.8933 51.8178 41.784C51.6018 41.672 51.4471 41.5427 51.3538 41.396C51.2631 41.2467 51.2178 41.0667 51.2178 40.856C51.2178 40.5947 51.2871 40.3667 51.4258 40.172C51.5645 39.9773 51.7591 39.8267 52.0098 39.72C52.2631 39.6133 52.5591 39.56 52.8978 39.56C53.2285 39.56 53.5231 39.612 53.7818 39.716C54.0405 39.82 54.2498 39.968 54.4098 40.16C54.5698 40.3493 54.6658 40.572 54.6978 40.828L53.8418 40.984C53.8125 40.776 53.7151 40.612 53.5498 40.492C53.3845 40.372 53.1698 40.3067 52.9058 40.296C52.6525 40.2853 52.4471 40.328 52.2898 40.424C52.1325 40.5173 52.0538 40.6467 52.0538 40.812C52.0538 40.908 52.0831 40.9893 52.1418 41.056C52.2031 41.1227 52.3205 41.1867 52.4938 41.248C52.6671 41.3093 52.9231 41.3827 53.2618 41.468C53.6245 41.5613 53.9125 41.6653 54.1258 41.78C54.3391 41.892 54.4911 42.0267 54.5818 42.184C54.6751 42.3387 54.7218 42.5267 54.7218 42.748C54.7218 43.1747 54.5658 43.5093 54.2538 43.752C53.9445 43.9947 53.5165 44.116 52.9698 44.116ZM58.0789 44C57.8069 44.0533 57.5402 44.076 57.2789 44.068C57.0175 44.06 56.7842 44.0093 56.5789 43.916C56.3735 43.8227 56.2189 43.676 56.1149 43.476C56.0215 43.2973 55.9709 43.116 55.9629 42.932C55.9575 42.7453 55.9549 42.5347 55.9549 42.3V38.48H56.7949V42.26C56.7949 42.4333 56.7962 42.584 56.7989 42.712C56.8042 42.84 56.8322 42.948 56.8829 43.036C56.9789 43.2013 57.1309 43.296 57.3389 43.32C57.5495 43.3413 57.7962 43.332 58.0789 43.292V44ZM55.1269 40.352V39.68H58.0789V40.352H55.1269ZM62.6193 44.12C62.2059 44.12 61.8593 44.02 61.5793 43.82C61.2993 43.6173 61.0873 43.344 60.9433 43C60.7993 42.656 60.7273 42.268 60.7273 41.836C60.7273 41.404 60.7979 41.016 60.9393 40.672C61.0833 40.328 61.2939 40.0573 61.5713 39.86C61.8513 39.66 62.1953 39.56 62.6033 39.56C63.0086 39.56 63.3579 39.66 63.6513 39.86C63.9473 40.0573 64.1753 40.328 64.3353 40.672C64.4953 41.0133 64.5753 41.4013 64.5753 41.836C64.5753 42.268 64.4953 42.6573 64.3353 43.004C64.1779 43.348 63.9526 43.62 63.6593 43.82C63.3686 44.02 63.0219 44.12 62.6193 44.12ZM60.5873 44V38.24H61.4273V40.892H61.3313V44H60.5873ZM62.5033 43.364C62.7699 43.364 62.9899 43.296 63.1633 43.16C63.3393 43.024 63.4699 42.8413 63.5553 42.612C63.6433 42.38 63.6873 42.1213 63.6873 41.836C63.6873 41.5533 63.6433 41.2973 63.5553 41.068C63.4699 40.8387 63.3379 40.656 63.1593 40.52C62.9806 40.384 62.7526 40.316 62.4753 40.316C62.2139 40.316 61.9979 40.38 61.8273 40.508C61.6593 40.636 61.5339 40.8147 61.4513 41.044C61.3713 41.2733 61.3313 41.5373 61.3313 41.836C61.3313 42.1347 61.3713 42.3987 61.4513 42.628C61.5313 42.8573 61.6579 43.0373 61.8313 43.168C62.0046 43.2987 62.2286 43.364 62.5033 43.364ZM65.5384 38.972V38.16H66.3744V38.972H65.5384ZM65.5384 44V39.68H66.3744V44H65.5384ZM67.6556 44V38.12H68.4916V44H67.6556ZM69.7728 44V38.12H70.6088V44H69.7728ZM73.462 44.116C72.9367 44.116 72.5087 44 72.178 43.768C71.8473 43.536 71.6447 43.2093 71.57 42.788L72.426 42.656C72.4793 42.88 72.602 43.0573 72.794 43.188C72.9887 43.316 73.23 43.38 73.518 43.38C73.7793 43.38 73.9833 43.3267 74.13 43.22C74.2793 43.1133 74.354 42.9667 74.354 42.78C74.354 42.6707 74.3273 42.5827 74.274 42.516C74.2233 42.4467 74.1153 42.3813 73.95 42.32C73.7847 42.2587 73.5327 42.1827 73.194 42.092C72.8233 41.996 72.5287 41.8933 72.31 41.784C72.094 41.672 71.9393 41.5427 71.846 41.396C71.7553 41.2467 71.71 41.0667 71.71 40.856C71.71 40.5947 71.7793 40.3667 71.918 40.172C72.0567 39.9773 72.2513 39.8267 72.502 39.72C72.7553 39.6133 73.0513 39.56 73.39 39.56C73.7207 39.56 74.0153 39.612 74.274 39.716C74.5327 39.82 74.742 39.968 74.902 40.16C75.062 40.3493 75.158 40.572 75.19 40.828L74.334 40.984C74.3047 40.776 74.2073 40.612 74.042 40.492C73.8767 40.372 73.662 40.3067 73.398 40.296C73.1447 40.2853 72.9393 40.328 72.782 40.424C72.6247 40.5173 72.546 40.6467 72.546 40.812C72.546 40.908 72.5753 40.9893 72.634 41.056C72.6953 41.1227 72.8127 41.1867 72.986 41.248C73.1593 41.3093 73.4153 41.3827 73.754 41.468C74.1167 41.5613 74.4047 41.6653 74.618 41.78C74.8313 41.892 74.9833 42.0267 75.074 42.184C75.1673 42.3387 75.214 42.5267 75.214 42.748C75.214 43.1747 75.058 43.5093 74.746 43.752C74.4367 43.9947 74.0087 44.116 73.462 44.116ZM79.7286 44.12C79.3153 44.12 78.9686 44.02 78.6886 43.82C78.4086 43.6173 78.1966 43.344 78.0526 43C77.9086 42.656 77.8366 42.268 77.8366 41.836C77.8366 41.404 77.9073 41.016 78.0486 40.672C78.1926 40.328 78.4033 40.0573 78.6806 39.86C78.9606 39.66 79.3046 39.56 79.7126 39.56C80.118 39.56 80.4673 39.66 80.7606 39.86C81.0566 40.0573 81.2846 40.328 81.4446 40.672C81.6046 41.0133 81.6846 41.4013 81.6846 41.836C81.6846 42.268 81.6046 42.6573 81.4446 43.004C81.2873 43.348 81.062 43.62 80.7686 43.82C80.478 44.02 80.1313 44.12 79.7286 44.12ZM77.6966 45.92V39.68H78.4406V42.788H78.5366V45.92H77.6966ZM79.6126 43.364C79.8793 43.364 80.0993 43.296 80.2726 43.16C80.4486 43.024 80.5793 42.8413 80.6646 42.612C80.7526 42.38 80.7966 42.1213 80.7966 41.836C80.7966 41.5533 80.7526 41.2973 80.6646 41.068C80.5793 40.8387 80.4473 40.656 80.2686 40.52C80.09 40.384 79.862 40.316 79.5846 40.316C79.3233 40.316 79.1073 40.38 78.9366 40.508C78.7686 40.636 78.6433 40.8147 78.5606 41.044C78.4806 41.2733 78.4406 41.5373 78.4406 41.836C78.4406 42.1347 78.4806 42.3987 78.5606 42.628C78.6406 42.8573 78.7673 43.0373 78.9406 43.168C79.114 43.2987 79.338 43.364 79.6126 43.364ZM83.7878 44.12C83.4678 44.12 83.1998 44.0613 82.9838 43.944C82.7678 43.824 82.6038 43.6667 82.4918 43.472C82.3825 43.2747 82.3278 43.0587 82.3278 42.824C82.3278 42.6053 82.3665 42.4133 82.4438 42.248C82.5211 42.0827 82.6358 41.9427 82.7878 41.828C82.9398 41.7107 83.1265 41.616 83.3478 41.544C83.5398 41.488 83.7571 41.4387 83.9998 41.396C84.2425 41.3533 84.4971 41.3133 84.7638 41.276C85.0331 41.2387 85.2998 41.2013 85.5638 41.164L85.2598 41.332C85.2651 40.9933 85.1931 40.7427 85.0438 40.58C84.8971 40.4147 84.6438 40.332 84.2838 40.332C84.0571 40.332 83.8491 40.3853 83.6598 40.492C83.4705 40.596 83.3385 40.7693 83.2638 41.012L82.4838 40.772C82.5905 40.4013 82.7931 40.1067 83.0918 39.888C83.3931 39.6693 83.7931 39.56 84.2918 39.56C84.6785 39.56 85.0145 39.6267 85.2998 39.76C85.5878 39.8907 85.7985 40.0987 85.9318 40.384C86.0011 40.5253 86.0438 40.6747 86.0598 40.832C86.0758 40.9893 86.0838 41.1587 86.0838 41.34V44H85.3438V43.012L85.4878 43.14C85.3091 43.4707 85.0811 43.7173 84.8038 43.88C84.5291 44.04 84.1905 44.12 83.7878 44.12ZM83.9358 43.436C84.1731 43.436 84.3771 43.3947 84.5478 43.312C84.7185 43.2267 84.8558 43.1187 84.9598 42.988C85.0638 42.8573 85.1318 42.7213 85.1638 42.58C85.2091 42.452 85.2345 42.308 85.2398 42.148C85.2478 41.988 85.2518 41.86 85.2518 41.764L85.5238 41.864C85.2598 41.904 85.0198 41.94 84.8038 41.972C84.5878 42.004 84.3918 42.036 84.2158 42.068C84.0425 42.0973 83.8878 42.1333 83.7518 42.176C83.6371 42.216 83.5345 42.264 83.4438 42.32C83.3558 42.376 83.2851 42.444 83.2318 42.524C83.1811 42.604 83.1558 42.7013 83.1558 42.816C83.1558 42.928 83.1838 43.032 83.2398 43.128C83.2958 43.2213 83.3811 43.296 83.4958 43.352C83.6105 43.408 83.7571 43.436 83.9358 43.436ZM87.2025 38.972V38.16H88.0385V38.972H87.2025ZM87.2025 44V39.68H88.0385V44H87.2025ZM90.9557 44.12C90.553 44.12 90.205 44.02 89.9117 43.82C89.621 43.62 89.3957 43.348 89.2357 43.004C89.0784 42.6573 88.9997 42.268 88.9997 41.836C88.9997 41.4013 89.0797 41.0133 89.2397 40.672C89.3997 40.328 89.6264 40.0573 89.9197 39.86C90.2157 39.66 90.5664 39.56 90.9717 39.56C91.3797 39.56 91.7224 39.66 91.9997 39.86C92.2797 40.0573 92.4904 40.328 92.6317 40.672C92.7757 41.016 92.8477 41.404 92.8477 41.836C92.8477 42.268 92.7757 42.656 92.6317 43C92.4877 43.344 92.2757 43.6173 91.9957 43.82C91.7157 44.02 91.369 44.12 90.9557 44.12ZM91.0717 43.364C91.3464 43.364 91.5704 43.2987 91.7437 43.168C91.917 43.0373 92.0437 42.8573 92.1237 42.628C92.2037 42.3987 92.2437 42.1347 92.2437 41.836C92.2437 41.5373 92.2024 41.2733 92.1197 41.044C92.0397 40.8147 91.9144 40.636 91.7437 40.508C91.5757 40.38 91.361 40.316 91.0997 40.316C90.8224 40.316 90.5944 40.384 90.4157 40.52C90.237 40.656 90.1037 40.8387 90.0157 41.068C89.9304 41.2973 89.8877 41.5533 89.8877 41.836C89.8877 42.1213 89.9304 42.38 90.0157 42.612C90.1037 42.8413 90.2344 43.024 90.4077 43.16C90.5837 43.296 90.805 43.364 91.0717 43.364ZM92.2437 44V40.892H92.1477V38.24H92.9877V44H92.2437ZM94.0269 44.956L94.0789 44.584C94.1935 44.592 94.2829 44.5707 94.3469 44.52C94.4109 44.4693 94.4535 44.3987 94.4749 44.308C94.4962 44.2173 94.5002 44.1147 94.4869 44H94.0269V43.036H94.9109V44.08C94.9109 44.3947 94.8349 44.632 94.6829 44.792C94.5335 44.952 94.3149 45.0067 94.0269 44.956ZM99.6808 44.116C99.1554 44.116 98.7274 44 98.3968 43.768C98.0661 43.536 97.8634 43.2093 97.7888 42.788L98.6447 42.656C98.6981 42.88 98.8208 43.0573 99.0128 43.188C99.2074 43.316 99.4488 43.38 99.7368 43.38C99.9981 43.38 100.202 43.3267 100.349 43.22C100.498 43.1133 100.573 42.9667 100.573 42.78C100.573 42.6707 100.546 42.5827 100.493 42.516C100.442 42.4467 100.334 42.3813 100.169 42.32C100.003 42.2587 99.7514 42.1827 99.4128 42.092C99.0421 41.996 98.7474 41.8933 98.5288 41.784C98.3128 41.672 98.1581 41.5427 98.0648 41.396C97.9741 41.2467 97.9288 41.0667 97.9288 40.856C97.9288 40.5947 97.9981 40.3667 98.1368 40.172C98.2754 39.9773 98.4701 39.8267 98.7208 39.72C98.9741 39.6133 99.2701 39.56 99.6088 39.56C99.9394 39.56 100.234 39.612 100.493 39.716C100.751 39.82 100.961 39.968 101.121 40.16C101.281 40.3493 101.377 40.572 101.409 40.828L100.553 40.984C100.523 40.776 100.426 40.612 100.261 40.492C100.095 40.372 99.8808 40.3067 99.6168 40.296C99.3634 40.2853 99.1581 40.328 99.0008 40.424C98.8434 40.5173 98.7648 40.6467 98.7648 40.812C98.7648 40.908 98.7941 40.9893 98.8528 41.056C98.9141 41.1227 99.0314 41.1867 99.2048 41.248C99.3781 41.3093 99.6341 41.3827 99.9728 41.468C100.335 41.5613 100.623 41.6653 100.837 41.78C101.05 41.892 101.202 42.0267 101.293 42.184C101.386 42.3387 101.433 42.5267 101.433 42.748C101.433 43.1747 101.277 43.5093 100.965 43.752C100.655 43.9947 100.227 44.116 99.6808 44.116ZM103.946 44.116C103.647 44.116 103.396 44.068 103.194 43.972C102.991 43.876 102.826 43.7507 102.698 43.596C102.572 43.4387 102.476 43.268 102.41 43.084C102.343 42.9 102.298 42.72 102.274 42.544C102.25 42.368 102.238 42.2133 102.238 42.08V39.68H103.086V41.804C103.086 41.972 103.099 42.1453 103.126 42.324C103.155 42.5 103.208 42.664 103.286 42.816C103.366 42.968 103.476 43.0907 103.618 43.184C103.762 43.2773 103.948 43.324 104.178 43.324C104.327 43.324 104.468 43.3 104.602 43.252C104.735 43.2013 104.851 43.1213 104.95 43.012C105.051 42.9027 105.13 42.7587 105.186 42.58C105.244 42.4013 105.274 42.184 105.274 41.928L105.794 42.124C105.794 42.516 105.72 42.8627 105.574 43.164C105.427 43.4627 105.216 43.696 104.942 43.864C104.667 44.032 104.335 44.116 103.946 44.116ZM105.374 44V42.752H105.274V39.68H106.118V44H105.374ZM109.268 44.12C108.854 44.12 108.508 44.02 108.228 43.82C107.948 43.6173 107.736 43.344 107.592 43C107.448 42.656 107.376 42.268 107.376 41.836C107.376 41.404 107.446 41.016 107.588 40.672C107.732 40.328 107.942 40.0573 108.22 39.86C108.5 39.66 108.844 39.56 109.252 39.56C109.657 39.56 110.006 39.66 110.3 39.86C110.596 40.0573 110.824 40.328 110.984 40.672C111.144 41.0133 111.224 41.4013 111.224 41.836C111.224 42.268 111.144 42.6573 110.984 43.004C110.826 43.348 110.601 43.62 110.308 43.82C110.017 44.02 109.67 44.12 109.268 44.12ZM107.236 44V38.24H108.076V40.892H107.98V44H107.236ZM109.152 43.364C109.418 43.364 109.638 43.296 109.812 43.16C109.988 43.024 110.118 42.8413 110.204 42.612C110.292 42.38 110.336 42.1213 110.336 41.836C110.336 41.5533 110.292 41.2973 110.204 41.068C110.118 40.8387 109.986 40.656 109.808 40.52C109.629 40.384 109.401 40.316 109.124 40.316C108.862 40.316 108.646 40.38 108.476 40.508C108.308 40.636 108.182 40.8147 108.1 41.044C108.02 41.2733 107.98 41.5373 107.98 41.836C107.98 42.1347 108.02 42.3987 108.1 42.628C108.18 42.8573 108.306 43.0373 108.48 43.168C108.653 43.2987 108.877 43.364 109.152 43.364ZM117.283 44L117.287 41.308C117.287 40.996 117.207 40.7533 117.047 40.58C116.887 40.404 116.676 40.316 116.415 40.316C116.255 40.316 116.108 40.3533 115.975 40.428C115.844 40.5 115.738 40.6093 115.655 40.756C115.575 40.9 115.535 41.0813 115.535 41.3L115.131 41.096C115.126 40.792 115.19 40.5253 115.323 40.296C115.459 40.0667 115.643 39.8893 115.875 39.764C116.107 39.636 116.367 39.572 116.655 39.572C117.122 39.572 117.483 39.712 117.739 39.992C117.995 40.272 118.123 40.644 118.123 41.108L118.119 44H117.283ZM112.103 44V39.68H112.847V40.928H112.943V44H112.103ZM114.695 44L114.699 41.324C114.699 41.0093 114.619 40.7627 114.459 40.584C114.302 40.4053 114.09 40.316 113.823 40.316C113.559 40.316 113.346 40.4067 113.183 40.588C113.023 40.7693 112.943 41.0067 112.943 41.3L112.543 41.044C112.543 40.7613 112.611 40.5093 112.747 40.288C112.883 40.0667 113.067 39.892 113.299 39.764C113.531 39.636 113.794 39.572 114.087 39.572C114.394 39.572 114.655 39.6373 114.871 39.768C115.087 39.896 115.251 40.076 115.363 40.308C115.478 40.54 115.535 40.8093 115.535 41.116L115.531 44H114.695ZM119.242 38.972V38.16H120.078V38.972H119.242ZM119.242 44V39.68H120.078V44H119.242ZM123.751 44C123.479 44.0533 123.212 44.076 122.951 44.068C122.689 44.06 122.456 44.0093 122.251 43.916C122.045 43.8227 121.891 43.676 121.787 43.476C121.693 43.2973 121.643 43.116 121.635 42.932C121.629 42.7453 121.627 42.5347 121.627 42.3V38.48H122.467V42.26C122.467 42.4333 122.468 42.584 122.471 42.712C122.476 42.84 122.504 42.948 122.555 43.036C122.651 43.2013 122.803 43.296 123.011 43.32C123.221 43.3413 123.468 43.332 123.751 43.292V44ZM120.799 40.352V39.68H123.751V40.352H120.799ZM126.651 44C126.379 44.0533 126.112 44.076 125.851 44.068C125.589 44.06 125.356 44.0093 125.151 43.916C124.945 43.8227 124.791 43.676 124.687 43.476C124.593 43.2973 124.543 43.116 124.535 42.932C124.529 42.7453 124.527 42.5347 124.527 42.3V38.48H125.367V42.26C125.367 42.4333 125.368 42.584 125.371 42.712C125.376 42.84 125.404 42.948 125.455 43.036C125.551 43.2013 125.703 43.296 125.911 43.32C126.121 43.3413 126.368 43.332 126.651 43.292V44ZM123.699 40.352V39.68H126.651V40.352H123.699ZM129.468 44.12C129.039 44.12 128.662 44.0267 128.336 43.84C128.014 43.6507 127.762 43.388 127.58 43.052C127.402 42.7133 127.312 42.3213 127.312 41.876C127.312 41.404 127.4 40.9947 127.576 40.648C127.755 40.3013 128.003 40.0333 128.32 39.844C128.638 39.6547 129.007 39.56 129.428 39.56C129.868 39.56 130.243 39.6627 130.552 39.868C130.862 40.0707 131.092 40.36 131.244 40.736C131.399 41.112 131.46 41.5587 131.428 42.076H130.592V41.772C130.587 41.2707 130.491 40.9 130.304 40.66C130.12 40.42 129.839 40.3 129.46 40.3C129.042 40.3 128.727 40.432 128.516 40.696C128.306 40.96 128.2 41.3413 128.2 41.84C128.2 42.3147 128.306 42.6827 128.516 42.944C128.727 43.2027 129.031 43.332 129.428 43.332C129.69 43.332 129.915 43.2733 130.104 43.156C130.296 43.036 130.446 42.8653 130.552 42.644L131.372 42.904C131.204 43.2907 130.95 43.5907 130.608 43.804C130.267 44.0147 129.887 44.12 129.468 44.12ZM127.928 42.076V41.424H131.012V42.076H127.928ZM134.042 44.12C133.639 44.12 133.291 44.02 132.998 43.82C132.707 43.62 132.482 43.348 132.322 43.004C132.164 42.6573 132.086 42.268 132.086 41.836C132.086 41.4013 132.166 41.0133 132.326 40.672C132.486 40.328 132.712 40.0573 133.006 39.86C133.302 39.66 133.652 39.56 134.058 39.56C134.466 39.56 134.808 39.66 135.086 39.86C135.366 40.0573 135.576 40.328 135.718 40.672C135.862 41.016 135.934 41.404 135.934 41.836C135.934 42.268 135.862 42.656 135.718 43C135.574 43.344 135.362 43.6173 135.082 43.82C134.802 44.02 134.455 44.12 134.042 44.12ZM134.158 43.364C134.432 43.364 134.656 43.2987 134.83 43.168C135.003 43.0373 135.13 42.8573 135.21 42.628C135.29 42.3987 135.33 42.1347 135.33 41.836C135.33 41.5373 135.288 41.2733 135.206 41.044C135.126 40.8147 135 40.636 134.83 40.508C134.662 40.38 134.447 40.316 134.186 40.316C133.908 40.316 133.68 40.384 133.502 40.52C133.323 40.656 133.19 40.8387 133.102 41.068C133.016 41.2973 132.974 41.5533 132.974 41.836C132.974 42.1213 133.016 42.38 133.102 42.612C133.19 42.8413 133.32 43.024 133.494 43.16C133.67 43.296 133.891 43.364 134.158 43.364ZM135.33 44V40.892H135.234V38.24H136.074V44H135.33ZM140.014 44.12C139.694 44.12 139.426 44.0613 139.21 43.944C138.994 43.824 138.83 43.6667 138.718 43.472C138.609 43.2747 138.554 43.0587 138.554 42.824C138.554 42.6053 138.593 42.4133 138.67 42.248C138.748 42.0827 138.862 41.9427 139.014 41.828C139.166 41.7107 139.353 41.616 139.574 41.544C139.766 41.488 139.984 41.4387 140.226 41.396C140.469 41.3533 140.724 41.3133 140.99 41.276C141.26 41.2387 141.526 41.2013 141.79 41.164L141.486 41.332C141.492 40.9933 141.42 40.7427 141.27 40.58C141.124 40.4147 140.87 40.332 140.51 40.332C140.284 40.332 140.076 40.3853 139.886 40.492C139.697 40.596 139.565 40.7693 139.49 41.012L138.71 40.772C138.817 40.4013 139.02 40.1067 139.318 39.888C139.62 39.6693 140.02 39.56 140.518 39.56C140.905 39.56 141.241 39.6267 141.526 39.76C141.814 39.8907 142.025 40.0987 142.158 40.384C142.228 40.5253 142.27 40.6747 142.286 40.832C142.302 40.9893 142.31 41.1587 142.31 41.34V44H141.57V43.012L141.714 43.14C141.536 43.4707 141.308 43.7173 141.03 43.88C140.756 44.04 140.417 44.12 140.014 44.12ZM140.162 43.436C140.4 43.436 140.604 43.3947 140.774 43.312C140.945 43.2267 141.082 43.1187 141.186 42.988C141.29 42.8573 141.358 42.7213 141.39 42.58C141.436 42.452 141.461 42.308 141.466 42.148C141.474 41.988 141.478 41.86 141.478 41.764L141.75 41.864C141.486 41.904 141.246 41.94 141.03 41.972C140.814 42.004 140.618 42.036 140.442 42.068C140.269 42.0973 140.114 42.1333 139.978 42.176C139.864 42.216 139.761 42.264 139.67 42.32C139.582 42.376 139.512 42.444 139.458 42.524C139.408 42.604 139.382 42.7013 139.382 42.816C139.382 42.928 139.41 43.032 139.466 43.128C139.522 43.2213 139.608 43.296 139.722 43.352C139.837 43.408 139.984 43.436 140.162 43.436ZM146.381 44V41.876C146.381 41.708 146.366 41.536 146.337 41.36C146.31 41.1813 146.257 41.016 146.177 40.864C146.1 40.712 145.989 40.5893 145.845 40.496C145.704 40.4027 145.518 40.356 145.289 40.356C145.14 40.356 144.998 40.3813 144.865 40.432C144.732 40.48 144.614 40.5587 144.513 40.668C144.414 40.7773 144.336 40.9213 144.277 41.1C144.221 41.2787 144.193 41.496 144.193 41.752L143.673 41.556C143.673 41.164 143.746 40.8187 143.893 40.52C144.04 40.2187 144.25 39.984 144.525 39.816C144.8 39.648 145.132 39.564 145.521 39.564C145.82 39.564 146.07 39.612 146.273 39.708C146.476 39.804 146.64 39.9307 146.765 40.088C146.893 40.2427 146.99 40.412 147.057 40.596C147.124 40.78 147.169 40.96 147.193 41.136C147.217 41.312 147.229 41.4667 147.229 41.6V44H146.381ZM143.345 44V39.68H144.093V40.928H144.193V44H143.345ZM149.932 44.12C149.53 44.12 149.182 44.02 148.888 43.82C148.598 43.62 148.372 43.348 148.212 43.004C148.055 42.6573 147.976 42.268 147.976 41.836C147.976 41.4013 148.056 41.0133 148.216 40.672C148.376 40.328 148.603 40.0573 148.896 39.86C149.192 39.66 149.543 39.56 149.948 39.56C150.356 39.56 150.699 39.66 150.976 39.86C151.256 40.0573 151.467 40.328 151.608 40.672C151.752 41.016 151.824 41.404 151.824 41.836C151.824 42.268 151.752 42.656 151.608 43C151.464 43.344 151.252 43.6173 150.972 43.82C150.692 44.02 150.346 44.12 149.932 44.12ZM150.048 43.364C150.323 43.364 150.547 43.2987 150.72 43.168C150.894 43.0373 151.02 42.8573 151.1 42.628C151.18 42.3987 151.22 42.1347 151.22 41.836C151.22 41.5373 151.179 41.2733 151.096 41.044C151.016 40.8147 150.891 40.636 150.72 40.508C150.552 40.38 150.338 40.316 150.076 40.316C149.799 40.316 149.571 40.384 149.392 40.52C149.214 40.656 149.08 40.8387 148.992 41.068C148.907 41.2973 148.864 41.5533 148.864 41.836C148.864 42.1213 148.907 42.38 148.992 42.612C149.08 42.8413 149.211 43.024 149.384 43.16C149.56 43.296 149.782 43.364 150.048 43.364ZM151.22 44V40.892H151.124V38.24H151.964V44H151.22ZM156.401 44.12C155.998 44.12 155.65 44.02 155.357 43.82C155.066 43.62 154.841 43.348 154.681 43.004C154.524 42.6573 154.445 42.268 154.445 41.836C154.445 41.4013 154.525 41.0133 154.685 40.672C154.845 40.328 155.072 40.0573 155.365 39.86C155.661 39.66 156.012 39.56 156.417 39.56C156.825 39.56 157.168 39.66 157.445 39.86C157.725 40.0573 157.936 40.328 158.077 40.672C158.221 41.016 158.293 41.404 158.293 41.836C158.293 42.268 158.221 42.656 158.077 43C157.933 43.344 157.721 43.6173 157.441 43.82C157.161 44.02 156.814 44.12 156.401 44.12ZM156.517 43.364C156.792 43.364 157.016 43.2987 157.189 43.168C157.362 43.0373 157.489 42.8573 157.569 42.628C157.649 42.3987 157.689 42.1347 157.689 41.836C157.689 41.5373 157.648 41.2733 157.565 41.044C157.485 40.8147 157.36 40.636 157.189 40.508C157.021 40.38 156.806 40.316 156.545 40.316C156.268 40.316 156.04 40.384 155.861 40.52C155.682 40.656 155.549 40.8387 155.461 41.068C155.376 41.2973 155.333 41.5533 155.333 41.836C155.333 42.1213 155.376 42.38 155.461 42.612C155.549 42.8413 155.68 43.024 155.853 43.16C156.029 43.296 156.25 43.364 156.517 43.364ZM157.689 44V40.892H157.593V38.24H158.433V44H157.689ZM161.468 44.12C161.039 44.12 160.662 44.0267 160.336 43.84C160.014 43.6507 159.762 43.388 159.58 43.052C159.402 42.7133 159.312 42.3213 159.312 41.876C159.312 41.404 159.4 40.9947 159.576 40.648C159.755 40.3013 160.003 40.0333 160.32 39.844C160.638 39.6547 161.007 39.56 161.428 39.56C161.868 39.56 162.243 39.6627 162.552 39.868C162.862 40.0707 163.092 40.36 163.244 40.736C163.399 41.112 163.46 41.5587 163.428 42.076H162.592V41.772C162.587 41.2707 162.491 40.9 162.304 40.66C162.12 40.42 161.839 40.3 161.46 40.3C161.042 40.3 160.727 40.432 160.516 40.696C160.306 40.96 160.2 41.3413 160.2 41.84C160.2 42.3147 160.306 42.6827 160.516 42.944C160.727 43.2027 161.031 43.332 161.428 43.332C161.69 43.332 161.915 43.2733 162.104 43.156C162.296 43.036 162.446 42.8653 162.552 42.644L163.372 42.904C163.204 43.2907 162.95 43.5907 162.608 43.804C162.267 44.0147 161.887 44.12 161.468 44.12ZM159.928 42.076V41.424H163.012V42.076H159.928ZM167.24 44V41.876C167.24 41.708 167.226 41.536 167.196 41.36C167.17 41.1813 167.116 41.016 167.036 40.864C166.959 40.712 166.848 40.5893 166.704 40.496C166.563 40.4027 166.378 40.356 166.148 40.356C165.999 40.356 165.858 40.3813 165.724 40.432C165.591 40.48 165.474 40.5587 165.372 40.668C165.274 40.7773 165.195 40.9213 165.136 41.1C165.08 41.2787 165.052 41.496 165.052 41.752L164.532 41.556C164.532 41.164 164.606 40.8187 164.752 40.52C164.899 40.2187 165.11 39.984 165.384 39.816C165.659 39.648 165.991 39.564 166.38 39.564C166.679 39.564 166.93 39.612 167.132 39.708C167.335 39.804 167.499 39.9307 167.624 40.088C167.752 40.2427 167.85 40.412 167.916 40.596C167.983 40.78 168.028 40.96 168.052 41.136C168.076 41.312 168.088 41.4667 168.088 41.6V44H167.24ZM164.204 44V39.68H164.952V40.928H165.052V44H164.204ZM169.21 38.972V38.16H170.046V38.972H169.21ZM169.21 44V39.68H170.046V44H169.21ZM173.164 44.12C172.734 44.12 172.357 44.0267 172.032 43.84C171.709 43.6507 171.457 43.388 171.275 43.052C171.097 42.7133 171.008 42.3213 171.008 41.876C171.008 41.404 171.096 40.9947 171.272 40.648C171.45 40.3013 171.698 40.0333 172.016 39.844C172.333 39.6547 172.702 39.56 173.124 39.56C173.564 39.56 173.938 39.6627 174.248 39.868C174.557 40.0707 174.788 40.36 174.94 40.736C175.094 41.112 175.156 41.5587 175.124 42.076H174.288V41.772C174.282 41.2707 174.186 40.9 174 40.66C173.816 40.42 173.534 40.3 173.156 40.3C172.737 40.3 172.422 40.432 172.212 40.696C172.001 40.96 171.896 41.3413 171.896 41.84C171.896 42.3147 172.001 42.6827 172.212 42.944C172.422 43.2027 172.726 43.332 173.124 43.332C173.385 43.332 173.61 43.2733 173.8 43.156C173.992 43.036 174.141 42.8653 174.248 42.644L175.068 42.904C174.9 43.2907 174.645 43.5907 174.304 43.804C173.962 44.0147 173.582 44.12 173.164 44.12ZM171.624 42.076V41.424H174.707V42.076H171.624ZM177.737 44.12C177.334 44.12 176.986 44.02 176.693 43.82C176.402 43.62 176.177 43.348 176.017 43.004C175.86 42.6573 175.781 42.268 175.781 41.836C175.781 41.4013 175.861 41.0133 176.021 40.672C176.181 40.328 176.408 40.0573 176.701 39.86C176.997 39.66 177.348 39.56 177.753 39.56C178.161 39.56 178.504 39.66 178.781 39.86C179.061 40.0573 179.272 40.328 179.413 40.672C179.557 41.016 179.629 41.404 179.629 41.836C179.629 42.268 179.557 42.656 179.413 43C179.269 43.344 179.057 43.6173 178.777 43.82C178.497 44.02 178.15 44.12 177.737 44.12ZM177.853 43.364C178.128 43.364 178.352 43.2987 178.525 43.168C178.698 43.0373 178.825 42.8573 178.905 42.628C178.985 42.3987 179.025 42.1347 179.025 41.836C179.025 41.5373 178.984 41.2733 178.901 41.044C178.821 40.8147 178.696 40.636 178.525 40.508C178.357 40.38 178.142 40.316 177.881 40.316C177.604 40.316 177.376 40.384 177.197 40.52C177.018 40.656 176.885 40.8387 176.797 41.068C176.712 41.2973 176.669 41.5533 176.669 41.836C176.669 42.1213 176.712 42.38 176.797 42.612C176.885 42.8413 177.016 43.024 177.189 43.16C177.365 43.296 177.586 43.364 177.853 43.364ZM179.025 44V40.892H178.929V38.24H179.769V44H179.025Z" fill="#838383"/>
<rect x="263" y="19" width="78" height="24" rx="12" fill="#F9F9F9"/>
<path d="M276.78 36L274.428 29.52H275.694L277.416 34.428L279.138 29.52H280.404L278.052 36H276.78ZM281.605 28.458V27.24H282.859V28.458H281.605ZM281.605 36V29.52H282.859V36H281.605ZM287.534 36.18C286.89 36.18 286.324 36.04 285.836 35.76C285.352 35.476 284.974 35.082 284.702 34.578C284.434 34.07 284.3 33.482 284.3 32.814C284.3 32.106 284.432 31.492 284.696 30.972C284.964 30.452 285.336 30.05 285.812 29.766C286.288 29.482 286.842 29.34 287.474 29.34C288.134 29.34 288.696 29.494 289.16 29.802C289.624 30.106 289.97 30.54 290.198 31.104C290.43 31.668 290.522 32.338 290.474 33.114H289.22V32.658C289.212 31.906 289.068 31.35 288.788 30.99C288.512 30.63 288.09 30.45 287.522 30.45C286.894 30.45 286.422 30.648 286.106 31.044C285.79 31.44 285.632 32.012 285.632 32.76C285.632 33.472 285.79 34.024 286.106 34.416C286.422 34.804 286.878 34.998 287.474 34.998C287.866 34.998 288.204 34.91 288.488 34.734C288.776 34.554 289 34.298 289.16 33.966L290.39 34.356C290.138 34.936 289.756 35.386 289.244 35.706C288.732 36.022 288.162 36.18 287.534 36.18ZM285.224 33.114V32.136H289.85V33.114H285.224ZM292.966 36L290.986 29.514L292.228 29.52L293.584 33.966L294.952 29.52H296.032L297.4 33.966L298.756 29.52H299.992L298.012 36H297.004L295.492 31.308L293.974 36H292.966ZM305.299 36.18C304.819 36.18 304.417 36.092 304.093 35.916C303.769 35.736 303.523 35.5 303.355 35.208C303.191 34.912 303.109 34.588 303.109 34.236C303.109 33.908 303.167 33.62 303.283 33.372C303.399 33.124 303.571 32.914 303.799 32.742C304.027 32.566 304.307 32.424 304.639 32.316C304.927 32.232 305.253 32.158 305.617 32.094C305.981 32.03 306.363 31.97 306.763 31.914C307.167 31.858 307.567 31.802 307.963 31.746L307.507 31.998C307.515 31.49 307.407 31.114 307.183 30.87C306.963 30.622 306.583 30.498 306.043 30.498C305.703 30.498 305.391 30.578 305.107 30.738C304.823 30.894 304.625 31.154 304.513 31.518L303.343 31.158C303.503 30.602 303.807 30.16 304.255 29.832C304.707 29.504 305.307 29.34 306.055 29.34C306.635 29.34 307.139 29.44 307.567 29.64C307.999 29.836 308.315 30.148 308.515 30.576C308.619 30.788 308.683 31.012 308.707 31.248C308.731 31.484 308.743 31.738 308.743 32.01V36H307.633V34.518L307.849 34.71C307.581 35.206 307.239 35.576 306.823 35.82C306.411 36.06 305.903 36.18 305.299 36.18ZM305.521 35.154C305.877 35.154 306.183 35.092 306.439 34.968C306.695 34.84 306.901 34.678 307.057 34.482C307.213 34.286 307.315 34.082 307.363 33.87C307.431 33.678 307.469 33.462 307.477 33.222C307.489 32.982 307.495 32.79 307.495 32.646L307.903 32.796C307.507 32.856 307.147 32.91 306.823 32.958C306.499 33.006 306.205 33.054 305.941 33.102C305.681 33.146 305.449 33.2 305.245 33.264C305.073 33.324 304.919 33.396 304.783 33.48C304.651 33.564 304.545 33.666 304.465 33.786C304.389 33.906 304.351 34.052 304.351 34.224C304.351 34.392 304.393 34.548 304.477 34.692C304.561 34.832 304.689 34.944 304.861 35.028C305.033 35.112 305.253 35.154 305.521 35.154ZM310.421 36V27.18H311.675V36H310.421ZM313.597 36V27.18H314.851V36H313.597Z" fill="#5E5E5E"/>
<path d="M325 29.1177L329 32.8824L333 29.1177" stroke="#838383" stroke-linecap="round" stroke-linejoin="round"/>
</svg>
