<svg width="103" height="102" viewBox="0 0 103 102" fill="none" xmlns="http://www.w3.org/2000/svg">
<path d="M10.3969 -2.3208L12.1859 -5.97348C14.7056 -5.14259 17.5941 -4.07259 19.9199 -1.75729C22.5158 0.816931 23.2061 3.73117 23.8104 6.30402C24.3818 8.71832 24.8701 10.8067 26.6975 12.6032C28.5249 14.3998 30.9119 15.1834 33.6697 16.0651C36.6182 17.0097 39.9574 18.0806 42.5579 20.6551C45.1583 23.2296 45.844 26.1435 46.4483 28.7164C47.0197 31.1307 47.5081 33.219 49.3354 35.0156C51.1628 36.8122 53.5452 37.5954 56.308 38.4737C59.2561 39.4221 62.5953 40.4929 65.1912 43.0671C67.7871 45.6414 68.4773 48.5556 69.0866 51.125C69.6531 53.5428 70.1464 55.6276 71.9692 57.4239C73.792 59.2201 76.1836 60.004 78.9418 60.882C81.8853 61.83 85.2291 62.9012 87.825 65.4754C90.4209 68.0496 91.1111 70.9639 91.7204 73.5333C92.2868 75.951 92.7802 78.0359 94.603 79.8322C96.4258 81.6284 98.8174 82.4123 101.576 83.2903C104.524 84.2386 107.863 85.3095 110.464 87.8802C112.79 90.188 113.568 92.731 114.117 94.9379L109.462 95.7574C109.013 93.9386 108.435 92.0308 106.808 90.4196C104.986 88.6158 102.598 87.8399 99.8351 86.9616C96.887 86.0132 93.5478 84.9423 90.9473 82.3678C88.3469 79.7933 87.6658 76.8797 87.0565 74.3103C86.4855 71.8922 85.9967 69.8076 84.1694 68.011C82.342 66.2145 79.9595 65.4313 77.1968 64.553C74.2486 63.6046 70.9094 62.5337 68.3136 59.9595C65.7177 57.3853 65.027 54.4748 64.4182 51.9017C63.8517 49.4839 63.3584 47.399 61.5356 45.6028C59.7128 43.8065 57.3212 43.0227 54.563 42.1447C51.6194 41.1966 48.2757 40.1255 45.6794 37.555C43.0831 34.9846 42.3932 32.0666 41.7844 29.4934C41.2175 27.0794 40.7246 24.9907 38.9018 23.1945C37.079 21.3982 34.6874 20.6144 31.9296 19.7326C28.9811 18.788 25.6423 17.7134 23.0415 15.1426C20.4406 12.5719 19.7553 9.65419 19.1511 7.08134C18.5796 4.66704 18.0867 2.57837 16.2639 0.782121C14.6411 -0.828694 12.477 -1.63103 10.3969 -2.3208Z" fill="#FFD5BD" fill-opacity="0.16"/>
<path d="M14.4531 -13.6392L17.4968 -16.5022C19.1298 -15.435 21.126 -14.8174 23.2381 -14.1665C26.1906 -13.2576 29.5339 -12.2236 32.1477 -9.7682C34.7615 -7.31281 35.4623 -4.53365 36.0802 -2.08297C36.6645 0.216695 37.1685 2.20619 39.0004 3.92185C40.8322 5.63751 43.2225 6.39125 45.9886 7.24003C48.9412 8.14892 52.2849 9.1793 54.8983 11.6383C57.5117 14.0973 58.2128 16.8728 58.8308 19.3235C59.4151 21.6232 59.9145 23.6124 61.7509 25.3283C63.5873 27.0443 65.9731 27.7977 68.7396 28.6429C71.6897 29.5734 75.0354 30.5858 77.6488 33.0448C80.2622 35.5038 80.9588 38.279 81.5817 40.7264C82.161 43.0294 82.6655 45.0153 84.4973 46.7309C86.3291 48.4466 88.724 49.2006 91.486 50.0455C94.4315 50.9756 97.7818 51.9884 100.391 54.447C102.999 56.9057 103.705 59.6816 104.328 62.129C104.907 64.4319 105.412 66.4178 107.244 68.1335C109.076 69.8491 111.47 70.6032 114.232 71.4517C117.184 72.3605 120.528 73.3945 123.142 75.8499C125.755 78.3053 126.456 81.0845 127.074 83.5351C127.522 85.2887 127.939 86.9458 128.985 88.4037L124.855 90.2484C123.43 88.271 122.917 86.2337 122.419 84.2773C121.834 81.9776 121.335 79.992 119.499 78.2724C117.663 76.5529 115.276 75.8031 112.51 74.9579C109.558 74.0454 106.214 73.015 103.601 70.556C100.987 68.097 100.286 65.3215 99.6678 62.8744C99.0885 60.5714 98.5841 58.5855 96.7477 56.8696C94.9113 55.1536 92.5255 54.4002 89.759 53.555C86.8135 52.6248 83.4631 51.6121 80.8543 49.1534C78.2455 46.6948 77.5398 43.9189 76.9168 41.4715C76.3375 39.1685 75.8331 37.1826 74.0013 35.467C72.1695 33.7513 69.7746 32.9973 67.013 32.1488C64.0651 31.2402 60.7172 30.2059 58.1079 27.7509C55.4987 25.2958 54.7934 22.5163 54.1754 20.0656C53.5916 17.7624 53.0871 15.7765 51.2553 14.0608C49.4235 12.3452 47.0286 11.5911 44.2671 10.7426C41.3145 9.83375 37.9712 8.79977 35.3574 6.34438C32.7436 3.889 32.0428 1.10984 31.4249 -1.34084C30.8406 -3.64051 30.3366 -5.63001 28.5048 -7.34567C26.6729 -9.06133 24.278 -9.81539 21.5165 -10.6638C19.1415 -11.431 16.6914 -12.1853 14.4531 -13.6392Z" fill="#FFD5BD" fill-opacity="0.16"/>
<path d="M20.5025 -32.6204L25.1473 -33.4321C25.3026 -32.8883 25.4396 -32.3457 25.5808 -31.7993C26.1601 -29.4963 26.6645 -27.5104 28.4964 -25.7948C30.3282 -24.0791 32.7231 -23.325 35.4846 -22.4766C38.4372 -21.5677 41.7805 -20.5337 44.3943 -18.0783C47.0081 -15.6229 47.7088 -12.8438 48.3268 -10.3931C48.9111 -8.09342 49.4151 -6.10393 51.2469 -4.38827C53.0788 -2.67261 55.4691 -1.91887 58.2352 -1.07009C61.1877 -0.161206 64.531 0.872777 67.1448 3.32816C69.7586 5.78355 70.4594 8.56271 71.0774 11.0134C71.6616 13.3131 72.1611 15.3022 73.9975 17.0182C75.8339 18.7342 78.2196 19.4876 80.9861 20.3328C83.9363 21.2633 87.282 22.2757 89.8908 24.7343C92.4996 27.193 93.2054 29.9689 93.8279 32.4199C94.4122 34.7195 94.912 36.7051 96.7435 38.4244C98.5749 40.1436 100.97 40.8941 103.732 41.739C106.678 42.6691 110.028 43.6818 112.637 46.1405C115.246 48.5992 115.973 51.3838 116.619 53.8364C117.198 56.1394 117.702 58.1253 119.534 59.8409C121.366 61.5566 123.761 62.3106 126.523 63.1591C129.475 64.068 132.823 65.1023 135.432 67.5574C138.041 70.0124 138.747 72.7919 139.365 75.2426C139.949 77.5423 140.453 79.5318 142.285 81.2474C144.117 82.9631 146.512 83.7171 149.273 84.5656C149.931 84.7673 150.607 84.9739 151.237 85.1881L149.392 88.635C148.792 88.4482 148.183 88.2608 147.556 88.0649C144.604 87.156 141.26 86.1256 138.647 83.6667C136.033 81.2077 135.332 78.4321 134.714 75.9814C134.13 73.6818 133.631 71.6926 131.794 69.9766C129.958 68.2606 127.572 67.5072 124.806 66.662C121.855 65.7315 118.51 64.7192 115.896 62.2602C113.283 59.8012 112.583 57.0184 111.938 54.555C111.355 52.2518 110.855 50.2662 109.018 48.5502C107.182 46.8342 104.796 46.0808 102.03 45.2356C99.084 44.3055 95.7337 43.2928 93.1245 40.8377C90.5153 38.3826 89.81 35.6032 89.1874 33.1522C88.6081 30.8492 88.1037 28.8633 86.2719 27.1477C84.44 25.432 82.0451 24.6779 79.2836 23.8295C76.3311 22.9206 72.9832 21.8863 70.374 19.4312C67.7648 16.9762 67.0594 14.1967 66.4369 11.7457C65.8576 9.44273 65.3532 7.45683 63.5213 5.74117C61.6895 4.02551 59.2946 3.27146 56.5331 2.423C53.5805 1.51411 50.2326 0.479809 47.6234 -1.97526C45.0142 -4.43033 44.3009 -7.22124 43.6909 -9.66049C43.1066 -11.9602 42.6026 -13.9497 40.7708 -15.6653C38.9389 -17.381 36.544 -18.135 33.7825 -18.9835C30.8137 -19.9116 27.4746 -20.9417 24.8566 -23.401C22.2387 -25.8603 21.5421 -28.6356 20.9241 -31.0862C20.793 -31.5994 20.6664 -32.1122 20.5025 -32.6204Z" fill="#FFD5BD" fill-opacity="0.16"/>
</svg>
